%TF.GenerationSoftware,KiCad,Pcbnew,(5.1.8)-1*%
%TF.CreationDate,2021-02-16T14:56:34+05:30*%
%TF.ProjectId,WLR089U0-DevBoard,574c5230-3839-4553-902d-446576426f61,V1*%
%TF.SameCoordinates,Original*%
%TF.FileFunction,Paste,Bot*%
%TF.FilePolarity,Positive*%
%FSLAX46Y46*%
G04 Gerber Fmt 4.6, Leading zero omitted, Abs format (unit mm)*
G04 Created by KiCad (PCBNEW (5.1.8)-1) date 2021-02-16 14:56:34*
%MOMM*%
%LPD*%
G01*
G04 APERTURE LIST*
G04 APERTURE END LIST*
%TO.C,C5*%
G36*
G01*
X143020000Y-112199999D02*
X143020000Y-113500001D01*
G75*
G02*
X142770001Y-113750000I-249999J0D01*
G01*
X141944999Y-113750000D01*
G75*
G02*
X141695000Y-113500001I0J249999D01*
G01*
X141695000Y-112199999D01*
G75*
G02*
X141944999Y-111950000I249999J0D01*
G01*
X142770001Y-111950000D01*
G75*
G02*
X143020000Y-112199999I0J-249999D01*
G01*
G37*
G36*
G01*
X146145000Y-112199999D02*
X146145000Y-113500001D01*
G75*
G02*
X145895001Y-113750000I-249999J0D01*
G01*
X145069999Y-113750000D01*
G75*
G02*
X144820000Y-113500001I0J249999D01*
G01*
X144820000Y-112199999D01*
G75*
G02*
X145069999Y-111950000I249999J0D01*
G01*
X145895001Y-111950000D01*
G75*
G02*
X146145000Y-112199999I0J-249999D01*
G01*
G37*
%TD*%
%TO.C,C4*%
G36*
G01*
X145900001Y-107950000D02*
X144599999Y-107950000D01*
G75*
G02*
X144350000Y-107700001I0J249999D01*
G01*
X144350000Y-106874999D01*
G75*
G02*
X144599999Y-106625000I249999J0D01*
G01*
X145900001Y-106625000D01*
G75*
G02*
X146150000Y-106874999I0J-249999D01*
G01*
X146150000Y-107700001D01*
G75*
G02*
X145900001Y-107950000I-249999J0D01*
G01*
G37*
G36*
G01*
X145900001Y-111075000D02*
X144599999Y-111075000D01*
G75*
G02*
X144350000Y-110825001I0J249999D01*
G01*
X144350000Y-109999999D01*
G75*
G02*
X144599999Y-109750000I249999J0D01*
G01*
X145900001Y-109750000D01*
G75*
G02*
X146150000Y-109999999I0J-249999D01*
G01*
X146150000Y-110825001D01*
G75*
G02*
X145900001Y-111075000I-249999J0D01*
G01*
G37*
%TD*%
%TO.C,R5*%
G36*
G01*
X141750000Y-103325000D02*
X141750000Y-102075000D01*
G75*
G02*
X142000000Y-101825000I250000J0D01*
G01*
X142925000Y-101825000D01*
G75*
G02*
X143175000Y-102075000I0J-250000D01*
G01*
X143175000Y-103325000D01*
G75*
G02*
X142925000Y-103575000I-250000J0D01*
G01*
X142000000Y-103575000D01*
G75*
G02*
X141750000Y-103325000I0J250000D01*
G01*
G37*
G36*
G01*
X144725000Y-103325000D02*
X144725000Y-102075000D01*
G75*
G02*
X144975000Y-101825000I250000J0D01*
G01*
X145900000Y-101825000D01*
G75*
G02*
X146150000Y-102075000I0J-250000D01*
G01*
X146150000Y-103325000D01*
G75*
G02*
X145900000Y-103575000I-250000J0D01*
G01*
X144975000Y-103575000D01*
G75*
G02*
X144725000Y-103325000I0J250000D01*
G01*
G37*
%TD*%
%TO.C,R4*%
G36*
G01*
X141750000Y-105775000D02*
X141750000Y-104525000D01*
G75*
G02*
X142000000Y-104275000I250000J0D01*
G01*
X142925000Y-104275000D01*
G75*
G02*
X143175000Y-104525000I0J-250000D01*
G01*
X143175000Y-105775000D01*
G75*
G02*
X142925000Y-106025000I-250000J0D01*
G01*
X142000000Y-106025000D01*
G75*
G02*
X141750000Y-105775000I0J250000D01*
G01*
G37*
G36*
G01*
X144725000Y-105775000D02*
X144725000Y-104525000D01*
G75*
G02*
X144975000Y-104275000I250000J0D01*
G01*
X145900000Y-104275000D01*
G75*
G02*
X146150000Y-104525000I0J-250000D01*
G01*
X146150000Y-105775000D01*
G75*
G02*
X145900000Y-106025000I-250000J0D01*
G01*
X144975000Y-106025000D01*
G75*
G02*
X144725000Y-105775000I0J250000D01*
G01*
G37*
%TD*%
M02*
