M48
; DRILL file {KiCad (5.1.8)-1} date 02/16/21 14:56:49
; FORMAT={-:-/ absolute / inch / decimal}
; #@! TF.CreationDate,2021-02-16T14:56:49+05:30
; #@! TF.GenerationSoftware,Kicad,Pcbnew,(5.1.8)-1
; #@! TF.FileFunction,Plated,1,2,PTH
FMAT,2
INCH
T1C0.0118
T2C0.0157
T3C0.0236
T4C0.0256
T5C0.0394
T6C0.0787
%
G90
G05
T1
X5.1969Y-4.5472
X5.252Y-4.5472
X5.3287Y-4.5453
X5.3976Y-4.4291
X5.4823Y-4.4961
X5.4823Y-4.5394
X5.4843Y-4.4469
X5.4843Y-4.628
X5.4862Y-4.3957
X5.5177Y-4.7087
X5.5256Y-4.4469
X5.5256Y-4.4961
X5.5256Y-4.5394
X5.5768Y-4.7087
X5.628Y-4.6319
X5.8602Y-4.5394
T2
X5.0Y-3.5501
X5.0644Y-3.5137
X5.2341Y-3.6028
X5.2345Y-4.1918
X5.2401Y-3.956
X5.3628Y-3.8311
X5.3682Y-4.1154
X5.3809Y-4.4998
X5.476Y-3.4962
X5.5028Y-4.327
X5.5209Y-3.8128
X5.5678Y-3.3666
X5.6884Y-3.1998
X5.6959Y-3.9592
X5.7716Y-4.4979
X5.7761Y-3.4895
X5.7953Y-4.5374
X5.937Y-4.5335
X5.9685Y-3.379
X6.1772Y-3.3792
T4
X5.111Y-3.2323
X5.111Y-3.2823
X5.161Y-3.2323
X5.161Y-3.2823
X5.211Y-3.2323
X5.211Y-3.2823
X5.261Y-3.2323
X5.261Y-3.2823
X5.311Y-3.2323
X5.311Y-3.2823
T5
X5.1083Y-3.7776
X5.1083Y-3.8776
X5.1083Y-3.9776
X5.1083Y-4.0776
X5.1083Y-4.1776
X5.1083Y-4.2776
X5.1083Y-4.3776
X5.1083Y-4.4776
X5.1083Y-4.5776
X5.1083Y-4.6776
X6.0453Y-3.7772
X6.0453Y-3.8772
X6.0453Y-3.9772
X6.0453Y-4.0772
X6.0453Y-4.1772
X6.0453Y-4.2772
X6.0453Y-4.3772
X6.0453Y-4.4772
X6.0453Y-4.5772
X6.0453Y-4.6772
X5.2291Y-3.6969
X5.3291Y-3.6969
X5.4291Y-3.6969
X5.5291Y-3.6969
X5.6291Y-3.6969
X5.7291Y-3.6969
X5.8291Y-3.6969
X5.9291Y-3.6969
X5.9276Y-3.2441
X6.0276Y-3.2441
T6
X6.2047Y-3.2559
X4.9606Y-3.2559
T3
G00X5.4429Y-3.2224
M15
G01X5.4429Y-3.1949
M16
G05
G00X5.7717Y-3.2224
M15
G01X5.7717Y-3.1949
M16
G05
T4
G00X5.5197Y-3.3307
M15
G01X5.5197Y-3.3228
M16
G05
G00X5.6949Y-3.3307
M15
G01X5.6949Y-3.3228
M16
G05
T0
M30
