%TF.GenerationSoftware,KiCad,Pcbnew,(5.1.8)-1*%
%TF.CreationDate,2021-02-17T08:18:28+05:30*%
%TF.ProjectId,WLR089U0-DevBoard,574c5230-3839-4553-902d-446576426f61,V1*%
%TF.SameCoordinates,Original*%
%TF.FileFunction,Soldermask,Bot*%
%TF.FilePolarity,Negative*%
%FSLAX46Y46*%
G04 Gerber Fmt 4.6, Leading zero omitted, Abs format (unit mm)*
G04 Created by KiCad (PCBNEW (5.1.8)-1) date 2021-02-17 08:18:28*
%MOMM*%
%LPD*%
G01*
G04 APERTURE LIST*
%ADD10C,2.600000*%
%ADD11O,1.700000X1.700000*%
%ADD12R,1.700000X1.700000*%
%ADD13O,1.050000X1.250000*%
%ADD14O,1.000000X1.900000*%
%ADD15R,1.000000X1.000000*%
%ADD16O,1.000000X1.000000*%
G04 APERTURE END LIST*
D10*
%TO.C,3V3*%
X157600000Y-82700000D03*
%TD*%
%TO.C,GND*%
X126000000Y-82700000D03*
%TD*%
%TO.C,C5*%
G36*
G01*
X143020000Y-112199997D02*
X143020000Y-113500003D01*
G75*
G02*
X142770003Y-113750000I-249997J0D01*
G01*
X141944997Y-113750000D01*
G75*
G02*
X141695000Y-113500003I0J249997D01*
G01*
X141695000Y-112199997D01*
G75*
G02*
X141944997Y-111950000I249997J0D01*
G01*
X142770003Y-111950000D01*
G75*
G02*
X143020000Y-112199997I0J-249997D01*
G01*
G37*
G36*
G01*
X146145000Y-112199997D02*
X146145000Y-113500003D01*
G75*
G02*
X145895003Y-113750000I-249997J0D01*
G01*
X145069997Y-113750000D01*
G75*
G02*
X144820000Y-113500003I0J249997D01*
G01*
X144820000Y-112199997D01*
G75*
G02*
X145069997Y-111950000I249997J0D01*
G01*
X145895003Y-111950000D01*
G75*
G02*
X146145000Y-112199997I0J-249997D01*
G01*
G37*
%TD*%
%TO.C,C4*%
G36*
G01*
X145900003Y-107950000D02*
X144599997Y-107950000D01*
G75*
G02*
X144350000Y-107700003I0J249997D01*
G01*
X144350000Y-106874997D01*
G75*
G02*
X144599997Y-106625000I249997J0D01*
G01*
X145900003Y-106625000D01*
G75*
G02*
X146150000Y-106874997I0J-249997D01*
G01*
X146150000Y-107700003D01*
G75*
G02*
X145900003Y-107950000I-249997J0D01*
G01*
G37*
G36*
G01*
X145900003Y-111075000D02*
X144599997Y-111075000D01*
G75*
G02*
X144350000Y-110825003I0J249997D01*
G01*
X144350000Y-109999997D01*
G75*
G02*
X144599997Y-109750000I249997J0D01*
G01*
X145900003Y-109750000D01*
G75*
G02*
X146150000Y-109999997I0J-249997D01*
G01*
X146150000Y-110825003D01*
G75*
G02*
X145900003Y-111075000I-249997J0D01*
G01*
G37*
%TD*%
%TO.C,R5*%
G36*
G01*
X141750000Y-103325000D02*
X141750000Y-102075000D01*
G75*
G02*
X142000000Y-101825000I250000J0D01*
G01*
X142925000Y-101825000D01*
G75*
G02*
X143175000Y-102075000I0J-250000D01*
G01*
X143175000Y-103325000D01*
G75*
G02*
X142925000Y-103575000I-250000J0D01*
G01*
X142000000Y-103575000D01*
G75*
G02*
X141750000Y-103325000I0J250000D01*
G01*
G37*
G36*
G01*
X144725000Y-103325000D02*
X144725000Y-102075000D01*
G75*
G02*
X144975000Y-101825000I250000J0D01*
G01*
X145900000Y-101825000D01*
G75*
G02*
X146150000Y-102075000I0J-250000D01*
G01*
X146150000Y-103325000D01*
G75*
G02*
X145900000Y-103575000I-250000J0D01*
G01*
X144975000Y-103575000D01*
G75*
G02*
X144725000Y-103325000I0J250000D01*
G01*
G37*
%TD*%
%TO.C,R4*%
G36*
G01*
X141750000Y-105775000D02*
X141750000Y-104525000D01*
G75*
G02*
X142000000Y-104275000I250000J0D01*
G01*
X142925000Y-104275000D01*
G75*
G02*
X143175000Y-104525000I0J-250000D01*
G01*
X143175000Y-105775000D01*
G75*
G02*
X142925000Y-106025000I-250000J0D01*
G01*
X142000000Y-106025000D01*
G75*
G02*
X141750000Y-105775000I0J250000D01*
G01*
G37*
G36*
G01*
X144725000Y-105775000D02*
X144725000Y-104525000D01*
G75*
G02*
X144975000Y-104275000I250000J0D01*
G01*
X145900000Y-104275000D01*
G75*
G02*
X146150000Y-104525000I0J-250000D01*
G01*
X146150000Y-105775000D01*
G75*
G02*
X145900000Y-106025000I-250000J0D01*
G01*
X144975000Y-106025000D01*
G75*
G02*
X144725000Y-105775000I0J250000D01*
G01*
G37*
%TD*%
D11*
%TO.C,J6*%
X132820000Y-93900000D03*
X135360000Y-93900000D03*
X137900000Y-93900000D03*
X140440000Y-93900000D03*
X142980000Y-93900000D03*
X145520000Y-93900000D03*
X148060000Y-93900000D03*
D12*
X150600000Y-93900000D03*
%TD*%
D13*
%TO.C,J1*%
X144650000Y-84500000D03*
X140200000Y-84500000D03*
D14*
X146600000Y-81500000D03*
X138250000Y-81500000D03*
%TD*%
D15*
%TO.C,J2*%
X134900000Y-82100000D03*
D16*
X134900000Y-83370000D03*
X133630000Y-82100000D03*
X133630000Y-83370000D03*
X132360000Y-82100000D03*
X132360000Y-83370000D03*
X131090000Y-82100000D03*
X131090000Y-83370000D03*
X129820000Y-82100000D03*
X129820000Y-83370000D03*
%TD*%
D11*
%TO.C,J3*%
X153550000Y-95940000D03*
X153550000Y-98480000D03*
X153550000Y-101020000D03*
X153550000Y-103560000D03*
X153550000Y-106100000D03*
X153550000Y-108640000D03*
X153550000Y-111180000D03*
X153550000Y-113720000D03*
X153550000Y-116260000D03*
D12*
X153550000Y-118800000D03*
%TD*%
D11*
%TO.C,J5*%
X129750000Y-118810000D03*
X129750000Y-116270000D03*
X129750000Y-113730000D03*
X129750000Y-111190000D03*
X129750000Y-108650000D03*
X129750000Y-106110000D03*
X129750000Y-103570000D03*
X129750000Y-101030000D03*
X129750000Y-98490000D03*
D12*
X129750000Y-95950000D03*
%TD*%
%TO.C,J4*%
X153100000Y-82400000D03*
D11*
X150560000Y-82400000D03*
%TD*%
M02*
