%TF.GenerationSoftware,KiCad,Pcbnew,(5.1.8)-1*%
%TF.CreationDate,2021-05-22T16:04:47+05:30*%
%TF.ProjectId,WLR089U0-DevBoard,574c5230-3839-4553-902d-446576426f61,V1*%
%TF.SameCoordinates,Original*%
%TF.FileFunction,Soldermask,Top*%
%TF.FilePolarity,Negative*%
%FSLAX46Y46*%
G04 Gerber Fmt 4.6, Leading zero omitted, Abs format (unit mm)*
G04 Created by KiCad (PCBNEW (5.1.8)-1) date 2021-05-22 16:04:47*
%MOMM*%
%LPD*%
G01*
G04 APERTURE LIST*
%ADD10C,2.600000*%
%ADD11C,0.100000*%
%ADD12R,1.500000X1.500000*%
%ADD13R,1.000000X1.500000*%
%ADD14O,1.700000X1.700000*%
%ADD15R,1.700000X1.700000*%
%ADD16O,1.050000X1.250000*%
%ADD17R,0.400000X1.350000*%
%ADD18O,1.000000X1.900000*%
%ADD19R,2.900000X1.900000*%
%ADD20R,0.875000X1.900000*%
%ADD21R,2.000000X0.700000*%
%ADD22R,1.500000X0.700000*%
%ADD23R,0.700000X1.500000*%
%ADD24R,0.700000X2.000000*%
%ADD25R,3.000000X3.030000*%
%ADD26R,1.000000X1.000000*%
%ADD27O,1.000000X1.000000*%
%ADD28R,0.800000X0.900000*%
%ADD29R,1.400000X0.300000*%
G04 APERTURE END LIST*
D10*
%TO.C,TP1*%
X157600000Y-82700000D03*
%TD*%
%TO.C,TP2*%
X126000000Y-82700000D03*
%TD*%
D11*
%TO.C,JP3*%
G36*
X128550000Y-85900602D02*
G01*
X128574534Y-85900602D01*
X128623365Y-85905412D01*
X128671490Y-85914984D01*
X128718445Y-85929228D01*
X128763778Y-85948005D01*
X128807051Y-85971136D01*
X128847850Y-85998396D01*
X128885779Y-86029524D01*
X128920476Y-86064221D01*
X128951604Y-86102150D01*
X128978864Y-86142949D01*
X129001995Y-86186222D01*
X129020772Y-86231555D01*
X129035016Y-86278510D01*
X129044588Y-86326635D01*
X129049398Y-86375466D01*
X129049398Y-86400000D01*
X129050000Y-86400000D01*
X129050000Y-86900000D01*
X129049398Y-86900000D01*
X129049398Y-86924534D01*
X129044588Y-86973365D01*
X129035016Y-87021490D01*
X129020772Y-87068445D01*
X129001995Y-87113778D01*
X128978864Y-87157051D01*
X128951604Y-87197850D01*
X128920476Y-87235779D01*
X128885779Y-87270476D01*
X128847850Y-87301604D01*
X128807051Y-87328864D01*
X128763778Y-87351995D01*
X128718445Y-87370772D01*
X128671490Y-87385016D01*
X128623365Y-87394588D01*
X128574534Y-87399398D01*
X128550000Y-87399398D01*
X128550000Y-87400000D01*
X128050000Y-87400000D01*
X128050000Y-85900000D01*
X128550000Y-85900000D01*
X128550000Y-85900602D01*
G37*
G36*
X127750000Y-87400000D02*
G01*
X127250000Y-87400000D01*
X127250000Y-87399398D01*
X127225466Y-87399398D01*
X127176635Y-87394588D01*
X127128510Y-87385016D01*
X127081555Y-87370772D01*
X127036222Y-87351995D01*
X126992949Y-87328864D01*
X126952150Y-87301604D01*
X126914221Y-87270476D01*
X126879524Y-87235779D01*
X126848396Y-87197850D01*
X126821136Y-87157051D01*
X126798005Y-87113778D01*
X126779228Y-87068445D01*
X126764984Y-87021490D01*
X126755412Y-86973365D01*
X126750602Y-86924534D01*
X126750602Y-86900000D01*
X126750000Y-86900000D01*
X126750000Y-86400000D01*
X126750602Y-86400000D01*
X126750602Y-86375466D01*
X126755412Y-86326635D01*
X126764984Y-86278510D01*
X126779228Y-86231555D01*
X126798005Y-86186222D01*
X126821136Y-86142949D01*
X126848396Y-86102150D01*
X126879524Y-86064221D01*
X126914221Y-86029524D01*
X126952150Y-85998396D01*
X126992949Y-85971136D01*
X127036222Y-85948005D01*
X127081555Y-85929228D01*
X127128510Y-85914984D01*
X127176635Y-85905412D01*
X127225466Y-85900602D01*
X127250000Y-85900602D01*
X127250000Y-85900000D01*
X127750000Y-85900000D01*
X127750000Y-87400000D01*
G37*
%TD*%
D12*
%TO.C,SW1*%
X143408000Y-119263000D03*
X137788000Y-119253000D03*
%TD*%
D11*
%TO.C,JP1*%
G36*
X138098000Y-88200000D02*
G01*
X137548000Y-88200000D01*
X137548000Y-88199398D01*
X137523466Y-88199398D01*
X137474635Y-88194588D01*
X137426510Y-88185016D01*
X137379555Y-88170772D01*
X137334222Y-88151995D01*
X137290949Y-88128864D01*
X137250150Y-88101604D01*
X137212221Y-88070476D01*
X137177524Y-88035779D01*
X137146396Y-87997850D01*
X137119136Y-87957051D01*
X137096005Y-87913778D01*
X137077228Y-87868445D01*
X137062984Y-87821490D01*
X137053412Y-87773365D01*
X137048602Y-87724534D01*
X137048602Y-87700000D01*
X137048000Y-87700000D01*
X137048000Y-87200000D01*
X137048602Y-87200000D01*
X137048602Y-87175466D01*
X137053412Y-87126635D01*
X137062984Y-87078510D01*
X137077228Y-87031555D01*
X137096005Y-86986222D01*
X137119136Y-86942949D01*
X137146396Y-86902150D01*
X137177524Y-86864221D01*
X137212221Y-86829524D01*
X137250150Y-86798396D01*
X137290949Y-86771136D01*
X137334222Y-86748005D01*
X137379555Y-86729228D01*
X137426510Y-86714984D01*
X137474635Y-86705412D01*
X137523466Y-86700602D01*
X137548000Y-86700602D01*
X137548000Y-86700000D01*
X138098000Y-86700000D01*
X138098000Y-88200000D01*
G37*
D13*
X138848000Y-87450000D03*
D11*
G36*
X140148000Y-86700602D02*
G01*
X140172534Y-86700602D01*
X140221365Y-86705412D01*
X140269490Y-86714984D01*
X140316445Y-86729228D01*
X140361778Y-86748005D01*
X140405051Y-86771136D01*
X140445850Y-86798396D01*
X140483779Y-86829524D01*
X140518476Y-86864221D01*
X140549604Y-86902150D01*
X140576864Y-86942949D01*
X140599995Y-86986222D01*
X140618772Y-87031555D01*
X140633016Y-87078510D01*
X140642588Y-87126635D01*
X140647398Y-87175466D01*
X140647398Y-87200000D01*
X140648000Y-87200000D01*
X140648000Y-87700000D01*
X140647398Y-87700000D01*
X140647398Y-87724534D01*
X140642588Y-87773365D01*
X140633016Y-87821490D01*
X140618772Y-87868445D01*
X140599995Y-87913778D01*
X140576864Y-87957051D01*
X140549604Y-87997850D01*
X140518476Y-88035779D01*
X140483779Y-88070476D01*
X140445850Y-88101604D01*
X140405051Y-88128864D01*
X140361778Y-88151995D01*
X140316445Y-88170772D01*
X140269490Y-88185016D01*
X140221365Y-88194588D01*
X140172534Y-88199398D01*
X140148000Y-88199398D01*
X140148000Y-88200000D01*
X139598000Y-88200000D01*
X139598000Y-86700000D01*
X140148000Y-86700000D01*
X140148000Y-86700602D01*
G37*
%TD*%
D14*
%TO.C,J6*%
X132820000Y-93900000D03*
X135360000Y-93900000D03*
X137900000Y-93900000D03*
X140440000Y-93900000D03*
X142980000Y-93900000D03*
X145520000Y-93900000D03*
X148060000Y-93900000D03*
D15*
X150600000Y-93900000D03*
%TD*%
D16*
%TO.C,J1*%
X144650000Y-84500000D03*
D17*
X143725000Y-84175000D03*
X143075000Y-84175000D03*
X142425000Y-84175000D03*
X141125000Y-84175000D03*
D16*
X140200000Y-84500000D03*
D18*
X146600000Y-81500000D03*
X138250000Y-81500000D03*
D17*
X141775000Y-84175000D03*
D19*
X142425000Y-81500000D03*
D20*
X138687500Y-81500000D03*
X146162500Y-81500000D03*
%TD*%
%TO.C,C1*%
G36*
G01*
X144099997Y-89580000D02*
X145400003Y-89580000D01*
G75*
G02*
X145650000Y-89829997I0J-249997D01*
G01*
X145650000Y-90655003D01*
G75*
G02*
X145400003Y-90905000I-249997J0D01*
G01*
X144099997Y-90905000D01*
G75*
G02*
X143850000Y-90655003I0J249997D01*
G01*
X143850000Y-89829997D01*
G75*
G02*
X144099997Y-89580000I249997J0D01*
G01*
G37*
G36*
G01*
X144099997Y-86455000D02*
X145400003Y-86455000D01*
G75*
G02*
X145650000Y-86704997I0J-249997D01*
G01*
X145650000Y-87530003D01*
G75*
G02*
X145400003Y-87780000I-249997J0D01*
G01*
X144099997Y-87780000D01*
G75*
G02*
X143850000Y-87530003I0J249997D01*
G01*
X143850000Y-86704997D01*
G75*
G02*
X144099997Y-86455000I249997J0D01*
G01*
G37*
%TD*%
%TO.C,C2*%
G36*
G01*
X152250003Y-90905000D02*
X150949997Y-90905000D01*
G75*
G02*
X150700000Y-90655003I0J249997D01*
G01*
X150700000Y-89829997D01*
G75*
G02*
X150949997Y-89580000I249997J0D01*
G01*
X152250003Y-89580000D01*
G75*
G02*
X152500000Y-89829997I0J-249997D01*
G01*
X152500000Y-90655003D01*
G75*
G02*
X152250003Y-90905000I-249997J0D01*
G01*
G37*
G36*
G01*
X152250003Y-87780000D02*
X150949997Y-87780000D01*
G75*
G02*
X150700000Y-87530003I0J249997D01*
G01*
X150700000Y-86704997D01*
G75*
G02*
X150949997Y-86455000I249997J0D01*
G01*
X152250003Y-86455000D01*
G75*
G02*
X152500000Y-86704997I0J-249997D01*
G01*
X152500000Y-87530003D01*
G75*
G02*
X152250003Y-87780000I-249997J0D01*
G01*
G37*
%TD*%
%TO.C,C3*%
G36*
G01*
X132296997Y-89580000D02*
X133597003Y-89580000D01*
G75*
G02*
X133847000Y-89829997I0J-249997D01*
G01*
X133847000Y-90655003D01*
G75*
G02*
X133597003Y-90905000I-249997J0D01*
G01*
X132296997Y-90905000D01*
G75*
G02*
X132047000Y-90655003I0J249997D01*
G01*
X132047000Y-89829997D01*
G75*
G02*
X132296997Y-89580000I249997J0D01*
G01*
G37*
G36*
G01*
X132296997Y-86455000D02*
X133597003Y-86455000D01*
G75*
G02*
X133847000Y-86704997I0J-249997D01*
G01*
X133847000Y-87530003D01*
G75*
G02*
X133597003Y-87780000I-249997J0D01*
G01*
X132296997Y-87780000D01*
G75*
G02*
X132047000Y-87530003I0J249997D01*
G01*
X132047000Y-86704997D01*
G75*
G02*
X132296997Y-86455000I249997J0D01*
G01*
G37*
%TD*%
%TO.C,D1*%
G36*
G01*
X157900000Y-92249999D02*
X157900000Y-93150001D01*
G75*
G02*
X157650001Y-93400000I-249999J0D01*
G01*
X156999999Y-93400000D01*
G75*
G02*
X156750000Y-93150001I0J249999D01*
G01*
X156750000Y-92249999D01*
G75*
G02*
X156999999Y-92000000I249999J0D01*
G01*
X157650001Y-92000000D01*
G75*
G02*
X157900000Y-92249999I0J-249999D01*
G01*
G37*
G36*
G01*
X155850000Y-92249999D02*
X155850000Y-93150001D01*
G75*
G02*
X155600001Y-93400000I-249999J0D01*
G01*
X154949999Y-93400000D01*
G75*
G02*
X154700000Y-93150001I0J249999D01*
G01*
X154700000Y-92249999D01*
G75*
G02*
X154949999Y-92000000I249999J0D01*
G01*
X155600001Y-92000000D01*
G75*
G02*
X155850000Y-92249999I0J-249999D01*
G01*
G37*
%TD*%
%TO.C,D2*%
G36*
G01*
X151265001Y-117843000D02*
X150364999Y-117843000D01*
G75*
G02*
X150115000Y-117593001I0J249999D01*
G01*
X150115000Y-116942999D01*
G75*
G02*
X150364999Y-116693000I249999J0D01*
G01*
X151265001Y-116693000D01*
G75*
G02*
X151515000Y-116942999I0J-249999D01*
G01*
X151515000Y-117593001D01*
G75*
G02*
X151265001Y-117843000I-249999J0D01*
G01*
G37*
G36*
G01*
X151265001Y-119893000D02*
X150364999Y-119893000D01*
G75*
G02*
X150115000Y-119643001I0J249999D01*
G01*
X150115000Y-118992999D01*
G75*
G02*
X150364999Y-118743000I249999J0D01*
G01*
X151265001Y-118743000D01*
G75*
G02*
X151515000Y-118992999I0J-249999D01*
G01*
X151515000Y-119643001D01*
G75*
G02*
X151265001Y-119893000I-249999J0D01*
G01*
G37*
%TD*%
D21*
%TO.C,IC1*%
X147925000Y-113370000D03*
X147925000Y-112370000D03*
D22*
X147925000Y-111370000D03*
X147925000Y-110370000D03*
X147925000Y-109370000D03*
X147925000Y-108370000D03*
X147925000Y-107370000D03*
X147925000Y-106370000D03*
X147925000Y-105370000D03*
X147925000Y-104370000D03*
X147925000Y-103370000D03*
D21*
X147925000Y-102370000D03*
D22*
X147925000Y-101370000D03*
D23*
X145675000Y-98950000D03*
D24*
X144675000Y-98950000D03*
D23*
X143675000Y-98950000D03*
X142675000Y-98950000D03*
X141675000Y-98950000D03*
X140675000Y-98950000D03*
X139675000Y-98950000D03*
X138675000Y-98950000D03*
X137675000Y-98950000D03*
D24*
X136675000Y-98950000D03*
D21*
X134425000Y-101370000D03*
D22*
X134425000Y-102370000D03*
X134425000Y-103370000D03*
X134425000Y-104370000D03*
X134425000Y-105370000D03*
X134425000Y-106370000D03*
X134425000Y-107370000D03*
X134425000Y-108370000D03*
X134425000Y-109370000D03*
X134425000Y-110370000D03*
X134425000Y-111370000D03*
D21*
X134425000Y-112370000D03*
X134425000Y-113370000D03*
D24*
X136675000Y-115950000D03*
X137675000Y-115950000D03*
X144675000Y-115950000D03*
X145675000Y-115950000D03*
D25*
X141875000Y-109620000D03*
%TD*%
D26*
%TO.C,J2*%
X134900000Y-82100000D03*
D27*
X134900000Y-83370000D03*
X133630000Y-82100000D03*
X133630000Y-83370000D03*
X132360000Y-82100000D03*
X132360000Y-83370000D03*
X131090000Y-82100000D03*
X131090000Y-83370000D03*
X129820000Y-82100000D03*
X129820000Y-83370000D03*
%TD*%
D14*
%TO.C,J3*%
X153550000Y-95940000D03*
X153550000Y-98480000D03*
X153550000Y-101020000D03*
X153550000Y-103560000D03*
X153550000Y-106100000D03*
X153550000Y-108640000D03*
X153550000Y-111180000D03*
X153550000Y-113720000D03*
X153550000Y-116260000D03*
D15*
X153550000Y-118800000D03*
%TD*%
D14*
%TO.C,J5*%
X129750000Y-118810000D03*
X129750000Y-116270000D03*
X129750000Y-113730000D03*
X129750000Y-111190000D03*
X129750000Y-108650000D03*
X129750000Y-106110000D03*
X129750000Y-103570000D03*
X129750000Y-101030000D03*
X129750000Y-98490000D03*
D15*
X129750000Y-95950000D03*
%TD*%
%TO.C,J4*%
X153100000Y-82400000D03*
D14*
X150560000Y-82400000D03*
%TD*%
D11*
%TO.C,JP2*%
G36*
X138098000Y-91200000D02*
G01*
X137548000Y-91200000D01*
X137548000Y-91199398D01*
X137523466Y-91199398D01*
X137474635Y-91194588D01*
X137426510Y-91185016D01*
X137379555Y-91170772D01*
X137334222Y-91151995D01*
X137290949Y-91128864D01*
X137250150Y-91101604D01*
X137212221Y-91070476D01*
X137177524Y-91035779D01*
X137146396Y-90997850D01*
X137119136Y-90957051D01*
X137096005Y-90913778D01*
X137077228Y-90868445D01*
X137062984Y-90821490D01*
X137053412Y-90773365D01*
X137048602Y-90724534D01*
X137048602Y-90700000D01*
X137048000Y-90700000D01*
X137048000Y-90200000D01*
X137048602Y-90200000D01*
X137048602Y-90175466D01*
X137053412Y-90126635D01*
X137062984Y-90078510D01*
X137077228Y-90031555D01*
X137096005Y-89986222D01*
X137119136Y-89942949D01*
X137146396Y-89902150D01*
X137177524Y-89864221D01*
X137212221Y-89829524D01*
X137250150Y-89798396D01*
X137290949Y-89771136D01*
X137334222Y-89748005D01*
X137379555Y-89729228D01*
X137426510Y-89714984D01*
X137474635Y-89705412D01*
X137523466Y-89700602D01*
X137548000Y-89700602D01*
X137548000Y-89700000D01*
X138098000Y-89700000D01*
X138098000Y-91200000D01*
G37*
D13*
X138848000Y-90450000D03*
D11*
G36*
X140148000Y-89700602D02*
G01*
X140172534Y-89700602D01*
X140221365Y-89705412D01*
X140269490Y-89714984D01*
X140316445Y-89729228D01*
X140361778Y-89748005D01*
X140405051Y-89771136D01*
X140445850Y-89798396D01*
X140483779Y-89829524D01*
X140518476Y-89864221D01*
X140549604Y-89902150D01*
X140576864Y-89942949D01*
X140599995Y-89986222D01*
X140618772Y-90031555D01*
X140633016Y-90078510D01*
X140642588Y-90126635D01*
X140647398Y-90175466D01*
X140647398Y-90200000D01*
X140648000Y-90200000D01*
X140648000Y-90700000D01*
X140647398Y-90700000D01*
X140647398Y-90724534D01*
X140642588Y-90773365D01*
X140633016Y-90821490D01*
X140618772Y-90868445D01*
X140599995Y-90913778D01*
X140576864Y-90957051D01*
X140549604Y-90997850D01*
X140518476Y-91035779D01*
X140483779Y-91070476D01*
X140445850Y-91101604D01*
X140405051Y-91128864D01*
X140361778Y-91151995D01*
X140316445Y-91170772D01*
X140269490Y-91185016D01*
X140221365Y-91194588D01*
X140172534Y-91199398D01*
X140148000Y-91199398D01*
X140148000Y-91200000D01*
X139598000Y-91200000D01*
X139598000Y-89700000D01*
X140148000Y-89700000D01*
X140148000Y-89700602D01*
G37*
%TD*%
%TO.C,R1*%
G36*
G01*
X131950000Y-119693000D02*
X131950000Y-118443000D01*
G75*
G02*
X132200000Y-118193000I250000J0D01*
G01*
X133125000Y-118193000D01*
G75*
G02*
X133375000Y-118443000I0J-250000D01*
G01*
X133375000Y-119693000D01*
G75*
G02*
X133125000Y-119943000I-250000J0D01*
G01*
X132200000Y-119943000D01*
G75*
G02*
X131950000Y-119693000I0J250000D01*
G01*
G37*
G36*
G01*
X134925000Y-119693000D02*
X134925000Y-118443000D01*
G75*
G02*
X135175000Y-118193000I250000J0D01*
G01*
X136100000Y-118193000D01*
G75*
G02*
X136350000Y-118443000I0J-250000D01*
G01*
X136350000Y-119693000D01*
G75*
G02*
X136100000Y-119943000I-250000J0D01*
G01*
X135175000Y-119943000D01*
G75*
G02*
X134925000Y-119693000I0J250000D01*
G01*
G37*
%TD*%
%TO.C,R2*%
G36*
G01*
X156275000Y-89425000D02*
X157525000Y-89425000D01*
G75*
G02*
X157775000Y-89675000I0J-250000D01*
G01*
X157775000Y-90600000D01*
G75*
G02*
X157525000Y-90850000I-250000J0D01*
G01*
X156275000Y-90850000D01*
G75*
G02*
X156025000Y-90600000I0J250000D01*
G01*
X156025000Y-89675000D01*
G75*
G02*
X156275000Y-89425000I250000J0D01*
G01*
G37*
G36*
G01*
X156275000Y-86450000D02*
X157525000Y-86450000D01*
G75*
G02*
X157775000Y-86700000I0J-250000D01*
G01*
X157775000Y-87625000D01*
G75*
G02*
X157525000Y-87875000I-250000J0D01*
G01*
X156275000Y-87875000D01*
G75*
G02*
X156025000Y-87625000I0J250000D01*
G01*
X156025000Y-86700000D01*
G75*
G02*
X156275000Y-86450000I250000J0D01*
G01*
G37*
%TD*%
%TO.C,R3*%
G36*
G01*
X147832000Y-119693000D02*
X147832000Y-118443000D01*
G75*
G02*
X148082000Y-118193000I250000J0D01*
G01*
X149007000Y-118193000D01*
G75*
G02*
X149257000Y-118443000I0J-250000D01*
G01*
X149257000Y-119693000D01*
G75*
G02*
X149007000Y-119943000I-250000J0D01*
G01*
X148082000Y-119943000D01*
G75*
G02*
X147832000Y-119693000I0J250000D01*
G01*
G37*
G36*
G01*
X144857000Y-119693000D02*
X144857000Y-118443000D01*
G75*
G02*
X145107000Y-118193000I250000J0D01*
G01*
X146032000Y-118193000D01*
G75*
G02*
X146282000Y-118443000I0J-250000D01*
G01*
X146282000Y-119693000D01*
G75*
G02*
X146032000Y-119943000I-250000J0D01*
G01*
X145107000Y-119943000D01*
G75*
G02*
X144857000Y-119693000I0J250000D01*
G01*
G37*
%TD*%
D28*
%TO.C,U1*%
X148175000Y-87700000D03*
X149125000Y-89700000D03*
X147225000Y-89700000D03*
%TD*%
D29*
%TO.C,U2*%
X130100000Y-88850000D03*
X130100000Y-89350000D03*
X130100000Y-89850000D03*
X130100000Y-90350000D03*
X130100000Y-90850000D03*
X125700000Y-90850000D03*
X125700000Y-90350000D03*
X125700000Y-89850000D03*
X125700000Y-89350000D03*
X125700000Y-88850000D03*
%TD*%
M02*
