%TF.GenerationSoftware,KiCad,Pcbnew,(5.1.8)-1*%
%TF.CreationDate,2021-05-22T16:04:47+05:30*%
%TF.ProjectId,WLR089U0-DevBoard,574c5230-3839-4553-902d-446576426f61,V1*%
%TF.SameCoordinates,Original*%
%TF.FileFunction,Legend,Top*%
%TF.FilePolarity,Positive*%
%FSLAX46Y46*%
G04 Gerber Fmt 4.6, Leading zero omitted, Abs format (unit mm)*
G04 Created by KiCad (PCBNEW (5.1.8)-1) date 2021-05-22 16:04:47*
%MOMM*%
%LPD*%
G01*
G04 APERTURE LIST*
%ADD10C,0.100000*%
%ADD11C,0.150000*%
%ADD12C,0.120000*%
%ADD13C,0.200000*%
%ADD14C,2.600000*%
%ADD15R,1.500000X1.500000*%
%ADD16R,1.000000X1.500000*%
%ADD17O,1.700000X1.700000*%
%ADD18R,1.700000X1.700000*%
%ADD19O,1.050000X1.250000*%
%ADD20R,0.400000X1.350000*%
%ADD21O,1.000000X1.900000*%
%ADD22R,2.900000X1.900000*%
%ADD23R,0.875000X1.900000*%
%ADD24R,2.000000X0.700000*%
%ADD25R,1.500000X0.700000*%
%ADD26R,0.700000X1.500000*%
%ADD27R,0.700000X2.000000*%
%ADD28R,3.000000X3.030000*%
%ADD29R,1.000000X1.000000*%
%ADD30O,1.000000X1.000000*%
%ADD31R,0.800000X0.900000*%
%ADD32R,1.400000X0.300000*%
G04 APERTURE END LIST*
D10*
X157816666Y-109966666D02*
X158150000Y-109966666D01*
X157750000Y-110166666D02*
X157983333Y-109466666D01*
X158216666Y-110166666D01*
X158816666Y-110166666D02*
X158416666Y-110166666D01*
X158616666Y-110166666D02*
X158616666Y-109466666D01*
X158550000Y-109566666D01*
X158483333Y-109633333D01*
X158416666Y-109666666D01*
X159416666Y-109466666D02*
X159283333Y-109466666D01*
X159216666Y-109500000D01*
X159183333Y-109533333D01*
X159116666Y-109633333D01*
X159083333Y-109766666D01*
X159083333Y-110033333D01*
X159116666Y-110100000D01*
X159150000Y-110133333D01*
X159216666Y-110166666D01*
X159350000Y-110166666D01*
X159416666Y-110133333D01*
X159450000Y-110100000D01*
X159483333Y-110033333D01*
X159483333Y-109866666D01*
X159450000Y-109800000D01*
X159416666Y-109766666D01*
X159350000Y-109733333D01*
X159216666Y-109733333D01*
X159150000Y-109766666D01*
X159116666Y-109800000D01*
X159083333Y-109866666D01*
X157866666Y-107416666D02*
X158200000Y-107416666D01*
X157800000Y-107616666D02*
X158033333Y-106916666D01*
X158266666Y-107616666D01*
X158866666Y-107616666D02*
X158466666Y-107616666D01*
X158666666Y-107616666D02*
X158666666Y-106916666D01*
X158600000Y-107016666D01*
X158533333Y-107083333D01*
X158466666Y-107116666D01*
X159100000Y-106916666D02*
X159566666Y-106916666D01*
X159266666Y-107616666D01*
D11*
X126020711Y-88050000D02*
G75*
G03*
X126020711Y-88050000I-70711J0D01*
G01*
D12*
X132250000Y-80750000D02*
X132250000Y-80950000D01*
X132300000Y-80850000D02*
X132900000Y-80800000D01*
X132900000Y-80900000D02*
X132300000Y-80900000D01*
X132950000Y-80750000D02*
X132250000Y-80750000D01*
X132950000Y-80950000D02*
X132950000Y-80750000D01*
D10*
X124982704Y-118152380D02*
X125601752Y-118152380D01*
X125268419Y-118533333D01*
X125411276Y-118533333D01*
X125506514Y-118580952D01*
X125554133Y-118628571D01*
X125601752Y-118723809D01*
X125601752Y-118961904D01*
X125554133Y-119057142D01*
X125506514Y-119104761D01*
X125411276Y-119152380D01*
X125125561Y-119152380D01*
X125030323Y-119104761D01*
X124982704Y-119057142D01*
X125887466Y-118152380D02*
X126220800Y-119152380D01*
X126554133Y-118152380D01*
X126792228Y-118152380D02*
X127411276Y-118152380D01*
X127077942Y-118533333D01*
X127220800Y-118533333D01*
X127316038Y-118580952D01*
X127363657Y-118628571D01*
X127411276Y-118723809D01*
X127411276Y-118961904D01*
X127363657Y-119057142D01*
X127316038Y-119104761D01*
X127220800Y-119152380D01*
X126935085Y-119152380D01*
X126839847Y-119104761D01*
X126792228Y-119057142D01*
X157009523Y-118302380D02*
X156533333Y-118302380D01*
X156485714Y-118778571D01*
X156533333Y-118730952D01*
X156628571Y-118683333D01*
X156866666Y-118683333D01*
X156961904Y-118730952D01*
X157009523Y-118778571D01*
X157057142Y-118873809D01*
X157057142Y-119111904D01*
X157009523Y-119207142D01*
X156961904Y-119254761D01*
X156866666Y-119302380D01*
X156628571Y-119302380D01*
X156533333Y-119254761D01*
X156485714Y-119207142D01*
X157342857Y-118302380D02*
X157676190Y-119302380D01*
X158009523Y-118302380D01*
X151097619Y-95511904D02*
X151097619Y-96130952D01*
X150716666Y-95797619D01*
X150716666Y-95940476D01*
X150669047Y-96035714D01*
X150621428Y-96083333D01*
X150526190Y-96130952D01*
X150288095Y-96130952D01*
X150192857Y-96083333D01*
X150145238Y-96035714D01*
X150097619Y-95940476D01*
X150097619Y-95654761D01*
X150145238Y-95559523D01*
X150192857Y-95511904D01*
X151097619Y-96416666D02*
X150097619Y-96750000D01*
X151097619Y-97083333D01*
X151097619Y-97321428D02*
X151097619Y-97940476D01*
X150716666Y-97607142D01*
X150716666Y-97750000D01*
X150669047Y-97845238D01*
X150621428Y-97892857D01*
X150526190Y-97940476D01*
X150288095Y-97940476D01*
X150192857Y-97892857D01*
X150145238Y-97845238D01*
X150097619Y-97750000D01*
X150097619Y-97464285D01*
X150145238Y-97369047D01*
X150192857Y-97321428D01*
X125149371Y-109045000D02*
X124816038Y-108568810D01*
X124577942Y-109045000D02*
X124577942Y-108045000D01*
X124958895Y-108045000D01*
X125054133Y-108092620D01*
X125101752Y-108140239D01*
X125149371Y-108235477D01*
X125149371Y-108378334D01*
X125101752Y-108473572D01*
X125054133Y-108521191D01*
X124958895Y-108568810D01*
X124577942Y-108568810D01*
X125482704Y-108045000D02*
X126149371Y-109045000D01*
X126149371Y-108045000D02*
X125482704Y-109045000D01*
X126482704Y-108759286D02*
X126958895Y-108759286D01*
X126387466Y-109045000D02*
X126720800Y-108045000D01*
X127054133Y-109045000D01*
X127863657Y-108045000D02*
X127387466Y-108045000D01*
X127339847Y-108521191D01*
X127387466Y-108473572D01*
X127482704Y-108425953D01*
X127720800Y-108425953D01*
X127816038Y-108473572D01*
X127863657Y-108521191D01*
X127911276Y-108616429D01*
X127911276Y-108854524D01*
X127863657Y-108949762D01*
X127816038Y-108997381D01*
X127720800Y-109045000D01*
X127482704Y-109045000D01*
X127387466Y-108997381D01*
X127339847Y-108949762D01*
X124554133Y-110571844D02*
X125125561Y-110571844D01*
X124839847Y-111571844D02*
X124839847Y-110571844D01*
X125363657Y-110571844D02*
X126030323Y-111571844D01*
X126030323Y-110571844D02*
X125363657Y-111571844D01*
X126363657Y-111286130D02*
X126839847Y-111286130D01*
X126268419Y-111571844D02*
X126601752Y-110571844D01*
X126935085Y-111571844D01*
X127696990Y-110905178D02*
X127696990Y-111571844D01*
X127458895Y-110524225D02*
X127220800Y-111238511D01*
X127839847Y-111238511D01*
X124577942Y-116625532D02*
X124577942Y-115625532D01*
X124958895Y-115625532D01*
X125054133Y-115673152D01*
X125101752Y-115720771D01*
X125149371Y-115816009D01*
X125149371Y-115958866D01*
X125101752Y-116054104D01*
X125054133Y-116101723D01*
X124958895Y-116149342D01*
X124577942Y-116149342D01*
X125530323Y-116339818D02*
X126006514Y-116339818D01*
X125435085Y-116625532D02*
X125768419Y-115625532D01*
X126101752Y-116625532D01*
X126625561Y-115625532D02*
X126720800Y-115625532D01*
X126816038Y-115673152D01*
X126863657Y-115720771D01*
X126911276Y-115816009D01*
X126958895Y-116006485D01*
X126958895Y-116244580D01*
X126911276Y-116435056D01*
X126863657Y-116530294D01*
X126816038Y-116577913D01*
X126720800Y-116625532D01*
X126625561Y-116625532D01*
X126530323Y-116577913D01*
X126482704Y-116530294D01*
X126435085Y-116435056D01*
X126387466Y-116244580D01*
X126387466Y-116006485D01*
X126435085Y-115816009D01*
X126482704Y-115720771D01*
X126530323Y-115673152D01*
X126625561Y-115625532D01*
X127816038Y-115625532D02*
X127625561Y-115625532D01*
X127530323Y-115673152D01*
X127482704Y-115720771D01*
X127387466Y-115863628D01*
X127339847Y-116054104D01*
X127339847Y-116435056D01*
X127387466Y-116530294D01*
X127435085Y-116577913D01*
X127530323Y-116625532D01*
X127720800Y-116625532D01*
X127816038Y-116577913D01*
X127863657Y-116530294D01*
X127911276Y-116435056D01*
X127911276Y-116196961D01*
X127863657Y-116101723D01*
X127816038Y-116054104D01*
X127720800Y-116006485D01*
X127530323Y-116006485D01*
X127435085Y-116054104D01*
X127387466Y-116101723D01*
X127339847Y-116196961D01*
X124506514Y-114098688D02*
X124506514Y-113098688D01*
X124887466Y-113098688D01*
X124982704Y-113146308D01*
X125030323Y-113193927D01*
X125077942Y-113289165D01*
X125077942Y-113432022D01*
X125030323Y-113527260D01*
X124982704Y-113574879D01*
X124887466Y-113622498D01*
X124506514Y-113622498D01*
X125839847Y-113574879D02*
X125982704Y-113622498D01*
X126030323Y-113670117D01*
X126077942Y-113765355D01*
X126077942Y-113908212D01*
X126030323Y-114003450D01*
X125982704Y-114051069D01*
X125887466Y-114098688D01*
X125506514Y-114098688D01*
X125506514Y-113098688D01*
X125839847Y-113098688D01*
X125935085Y-113146308D01*
X125982704Y-113193927D01*
X126030323Y-113289165D01*
X126030323Y-113384403D01*
X125982704Y-113479641D01*
X125935085Y-113527260D01*
X125839847Y-113574879D01*
X125506514Y-113574879D01*
X126696990Y-113098688D02*
X126792228Y-113098688D01*
X126887466Y-113146308D01*
X126935085Y-113193927D01*
X126982704Y-113289165D01*
X127030323Y-113479641D01*
X127030323Y-113717736D01*
X126982704Y-113908212D01*
X126935085Y-114003450D01*
X126887466Y-114051069D01*
X126792228Y-114098688D01*
X126696990Y-114098688D01*
X126601752Y-114051069D01*
X126554133Y-114003450D01*
X126506514Y-113908212D01*
X126458895Y-113717736D01*
X126458895Y-113479641D01*
X126506514Y-113289165D01*
X126554133Y-113193927D01*
X126601752Y-113146308D01*
X126696990Y-113098688D01*
X127363657Y-113098688D02*
X127982704Y-113098688D01*
X127649371Y-113479641D01*
X127792228Y-113479641D01*
X127887466Y-113527260D01*
X127935085Y-113574879D01*
X127982704Y-113670117D01*
X127982704Y-113908212D01*
X127935085Y-114003450D01*
X127887466Y-114051069D01*
X127792228Y-114098688D01*
X127506514Y-114098688D01*
X127411276Y-114051069D01*
X127363657Y-114003450D01*
X124577942Y-106518156D02*
X124577942Y-105518156D01*
X124958895Y-105518156D01*
X125054133Y-105565776D01*
X125101752Y-105613395D01*
X125149371Y-105708633D01*
X125149371Y-105851490D01*
X125101752Y-105946728D01*
X125054133Y-105994347D01*
X124958895Y-106041966D01*
X124577942Y-106041966D01*
X125530323Y-106232442D02*
X126006514Y-106232442D01*
X125435085Y-106518156D02*
X125768419Y-105518156D01*
X126101752Y-106518156D01*
X126387466Y-105613395D02*
X126435085Y-105565776D01*
X126530323Y-105518156D01*
X126768419Y-105518156D01*
X126863657Y-105565776D01*
X126911276Y-105613395D01*
X126958895Y-105708633D01*
X126958895Y-105803871D01*
X126911276Y-105946728D01*
X126339847Y-106518156D01*
X126958895Y-106518156D01*
X127530323Y-105946728D02*
X127435085Y-105899109D01*
X127387466Y-105851490D01*
X127339847Y-105756252D01*
X127339847Y-105708633D01*
X127387466Y-105613395D01*
X127435085Y-105565776D01*
X127530323Y-105518156D01*
X127720800Y-105518156D01*
X127816038Y-105565776D01*
X127863657Y-105613395D01*
X127911276Y-105708633D01*
X127911276Y-105756252D01*
X127863657Y-105851490D01*
X127816038Y-105899109D01*
X127720800Y-105946728D01*
X127530323Y-105946728D01*
X127435085Y-105994347D01*
X127387466Y-106041966D01*
X127339847Y-106137204D01*
X127339847Y-106327680D01*
X127387466Y-106422918D01*
X127435085Y-106470537D01*
X127530323Y-106518156D01*
X127720800Y-106518156D01*
X127816038Y-106470537D01*
X127863657Y-106422918D01*
X127911276Y-106327680D01*
X127911276Y-106137204D01*
X127863657Y-106041966D01*
X127816038Y-105994347D01*
X127720800Y-105946728D01*
X124387466Y-102991312D02*
X124720800Y-103991312D01*
X125054133Y-102991312D01*
X125387466Y-103991312D02*
X125387466Y-102991312D01*
X125625561Y-102991312D01*
X125768419Y-103038932D01*
X125863657Y-103134170D01*
X125911276Y-103229408D01*
X125958895Y-103419884D01*
X125958895Y-103562741D01*
X125911276Y-103753217D01*
X125863657Y-103848455D01*
X125768419Y-103943693D01*
X125625561Y-103991312D01*
X125387466Y-103991312D01*
X126387466Y-103991312D02*
X126387466Y-102991312D01*
X126625561Y-102991312D01*
X126768419Y-103038932D01*
X126863657Y-103134170D01*
X126911276Y-103229408D01*
X126958895Y-103419884D01*
X126958895Y-103562741D01*
X126911276Y-103753217D01*
X126863657Y-103848455D01*
X126768419Y-103943693D01*
X126625561Y-103991312D01*
X126387466Y-103991312D01*
X127958895Y-103896074D02*
X127911276Y-103943693D01*
X127768419Y-103991312D01*
X127673180Y-103991312D01*
X127530323Y-103943693D01*
X127435085Y-103848455D01*
X127387466Y-103753217D01*
X127339847Y-103562741D01*
X127339847Y-103419884D01*
X127387466Y-103229408D01*
X127435085Y-103134170D01*
X127530323Y-103038932D01*
X127673180Y-102991312D01*
X127768419Y-102991312D01*
X127911276Y-103038932D01*
X127958895Y-103086551D01*
X124839847Y-100464468D02*
X125173180Y-101464468D01*
X125506514Y-100464468D01*
X125792228Y-101416849D02*
X125935085Y-101464468D01*
X126173180Y-101464468D01*
X126268419Y-101416849D01*
X126316038Y-101369230D01*
X126363657Y-101273992D01*
X126363657Y-101178754D01*
X126316038Y-101083516D01*
X126268419Y-101035897D01*
X126173180Y-100988278D01*
X125982704Y-100940659D01*
X125887466Y-100893040D01*
X125839847Y-100845421D01*
X125792228Y-100750183D01*
X125792228Y-100654945D01*
X125839847Y-100559707D01*
X125887466Y-100512088D01*
X125982704Y-100464468D01*
X126220800Y-100464468D01*
X126363657Y-100512088D01*
X126696990Y-100464468D02*
X126935085Y-101464468D01*
X127125561Y-100750183D01*
X127316038Y-101464468D01*
X127554133Y-100464468D01*
X125458895Y-97985244D02*
X125363657Y-97937624D01*
X125220800Y-97937624D01*
X125077942Y-97985244D01*
X124982704Y-98080482D01*
X124935085Y-98175720D01*
X124887466Y-98366196D01*
X124887466Y-98509053D01*
X124935085Y-98699529D01*
X124982704Y-98794767D01*
X125077942Y-98890005D01*
X125220800Y-98937624D01*
X125316038Y-98937624D01*
X125458895Y-98890005D01*
X125506514Y-98842386D01*
X125506514Y-98509053D01*
X125316038Y-98509053D01*
X125935085Y-98937624D02*
X125935085Y-97937624D01*
X126506514Y-98937624D01*
X126506514Y-97937624D01*
X126982704Y-98937624D02*
X126982704Y-97937624D01*
X127220800Y-97937624D01*
X127363657Y-97985244D01*
X127458895Y-98080482D01*
X127506514Y-98175720D01*
X127554133Y-98366196D01*
X127554133Y-98509053D01*
X127506514Y-98699529D01*
X127458895Y-98794767D01*
X127363657Y-98890005D01*
X127220800Y-98937624D01*
X126982704Y-98937624D01*
X125458895Y-95458400D02*
X125363657Y-95410780D01*
X125220800Y-95410780D01*
X125077942Y-95458400D01*
X124982704Y-95553638D01*
X124935085Y-95648876D01*
X124887466Y-95839352D01*
X124887466Y-95982209D01*
X124935085Y-96172685D01*
X124982704Y-96267923D01*
X125077942Y-96363161D01*
X125220800Y-96410780D01*
X125316038Y-96410780D01*
X125458895Y-96363161D01*
X125506514Y-96315542D01*
X125506514Y-95982209D01*
X125316038Y-95982209D01*
X125935085Y-96410780D02*
X125935085Y-95410780D01*
X126506514Y-96410780D01*
X126506514Y-95410780D01*
X126982704Y-96410780D02*
X126982704Y-95410780D01*
X127220800Y-95410780D01*
X127363657Y-95458400D01*
X127458895Y-95553638D01*
X127506514Y-95648876D01*
X127554133Y-95839352D01*
X127554133Y-95982209D01*
X127506514Y-96172685D01*
X127458895Y-96267923D01*
X127363657Y-96363161D01*
X127220800Y-96410780D01*
X126982704Y-96410780D01*
X132252380Y-97938095D02*
X132252380Y-97319047D01*
X132633333Y-97652380D01*
X132633333Y-97509523D01*
X132680952Y-97414285D01*
X132728571Y-97366666D01*
X132823809Y-97319047D01*
X133061904Y-97319047D01*
X133157142Y-97366666D01*
X133204761Y-97414285D01*
X133252380Y-97509523D01*
X133252380Y-97795238D01*
X133204761Y-97890476D01*
X133157142Y-97938095D01*
X132252380Y-97033333D02*
X133252380Y-96700000D01*
X132252380Y-96366666D01*
X132252380Y-96128571D02*
X132252380Y-95509523D01*
X132633333Y-95842857D01*
X132633333Y-95700000D01*
X132680952Y-95604761D01*
X132728571Y-95557142D01*
X132823809Y-95509523D01*
X133061904Y-95509523D01*
X133157142Y-95557142D01*
X133204761Y-95604761D01*
X133252380Y-95700000D01*
X133252380Y-95985714D01*
X133204761Y-96080952D01*
X133157142Y-96128571D01*
X135452380Y-98742857D02*
X134452380Y-98742857D01*
X134452380Y-98361904D01*
X134500000Y-98266666D01*
X134547619Y-98219047D01*
X134642857Y-98171428D01*
X134785714Y-98171428D01*
X134880952Y-98219047D01*
X134928571Y-98266666D01*
X134976190Y-98361904D01*
X134976190Y-98742857D01*
X135166666Y-97790476D02*
X135166666Y-97314285D01*
X135452380Y-97885714D02*
X134452380Y-97552380D01*
X135452380Y-97219047D01*
X134547619Y-96933333D02*
X134500000Y-96885714D01*
X134452380Y-96790476D01*
X134452380Y-96552380D01*
X134500000Y-96457142D01*
X134547619Y-96409523D01*
X134642857Y-96361904D01*
X134738095Y-96361904D01*
X134880952Y-96409523D01*
X135452380Y-96980952D01*
X135452380Y-96361904D01*
X134547619Y-95980952D02*
X134500000Y-95933333D01*
X134452380Y-95838095D01*
X134452380Y-95600000D01*
X134500000Y-95504761D01*
X134547619Y-95457142D01*
X134642857Y-95409523D01*
X134738095Y-95409523D01*
X134880952Y-95457142D01*
X135452380Y-96028571D01*
X135452380Y-95409523D01*
X136047619Y-96502380D02*
X136047619Y-95502380D01*
X136380952Y-96216666D01*
X136714285Y-95502380D01*
X136714285Y-96502380D01*
X137190476Y-96502380D02*
X137190476Y-95502380D01*
X137619047Y-96454761D02*
X137761904Y-96502380D01*
X138000000Y-96502380D01*
X138095238Y-96454761D01*
X138142857Y-96407142D01*
X138190476Y-96311904D01*
X138190476Y-96216666D01*
X138142857Y-96121428D01*
X138095238Y-96073809D01*
X138000000Y-96026190D01*
X137809523Y-95978571D01*
X137714285Y-95930952D01*
X137666666Y-95883333D01*
X137619047Y-95788095D01*
X137619047Y-95692857D01*
X137666666Y-95597619D01*
X137714285Y-95550000D01*
X137809523Y-95502380D01*
X138047619Y-95502380D01*
X138190476Y-95550000D01*
X138809523Y-95502380D02*
X139000000Y-95502380D01*
X139095238Y-95550000D01*
X139190476Y-95645238D01*
X139238095Y-95835714D01*
X139238095Y-96169047D01*
X139190476Y-96359523D01*
X139095238Y-96454761D01*
X139000000Y-96502380D01*
X138809523Y-96502380D01*
X138714285Y-96454761D01*
X138619047Y-96359523D01*
X138571428Y-96169047D01*
X138571428Y-95835714D01*
X138619047Y-95645238D01*
X138714285Y-95550000D01*
X138809523Y-95502380D01*
X139433333Y-97154761D02*
X139576190Y-97202380D01*
X139814285Y-97202380D01*
X139909523Y-97154761D01*
X139957142Y-97107142D01*
X140004761Y-97011904D01*
X140004761Y-96916666D01*
X139957142Y-96821428D01*
X139909523Y-96773809D01*
X139814285Y-96726190D01*
X139623809Y-96678571D01*
X139528571Y-96630952D01*
X139480952Y-96583333D01*
X139433333Y-96488095D01*
X139433333Y-96392857D01*
X139480952Y-96297619D01*
X139528571Y-96250000D01*
X139623809Y-96202380D01*
X139861904Y-96202380D01*
X140004761Y-96250000D01*
X141004761Y-97107142D02*
X140957142Y-97154761D01*
X140814285Y-97202380D01*
X140719047Y-97202380D01*
X140576190Y-97154761D01*
X140480952Y-97059523D01*
X140433333Y-96964285D01*
X140385714Y-96773809D01*
X140385714Y-96630952D01*
X140433333Y-96440476D01*
X140480952Y-96345238D01*
X140576190Y-96250000D01*
X140719047Y-96202380D01*
X140814285Y-96202380D01*
X140957142Y-96250000D01*
X141004761Y-96297619D01*
X141433333Y-97202380D02*
X141433333Y-96202380D01*
X142004761Y-97202380D02*
X141576190Y-96630952D01*
X142004761Y-96202380D02*
X141433333Y-96773809D01*
X142338095Y-96504761D02*
X142480952Y-96552380D01*
X142719047Y-96552380D01*
X142814285Y-96504761D01*
X142861904Y-96457142D01*
X142909523Y-96361904D01*
X142909523Y-96266666D01*
X142861904Y-96171428D01*
X142814285Y-96123809D01*
X142719047Y-96076190D01*
X142528571Y-96028571D01*
X142433333Y-95980952D01*
X142385714Y-95933333D01*
X142338095Y-95838095D01*
X142338095Y-95742857D01*
X142385714Y-95647619D01*
X142433333Y-95600000D01*
X142528571Y-95552380D01*
X142766666Y-95552380D01*
X142909523Y-95600000D01*
X143290476Y-96504761D02*
X143433333Y-96552380D01*
X143671428Y-96552380D01*
X143766666Y-96504761D01*
X143814285Y-96457142D01*
X143861904Y-96361904D01*
X143861904Y-96266666D01*
X143814285Y-96171428D01*
X143766666Y-96123809D01*
X143671428Y-96076190D01*
X143480952Y-96028571D01*
X143385714Y-95980952D01*
X143338095Y-95933333D01*
X143290476Y-95838095D01*
X143290476Y-95742857D01*
X143338095Y-95647619D01*
X143385714Y-95600000D01*
X143480952Y-95552380D01*
X143719047Y-95552380D01*
X143861904Y-95600000D01*
X144228571Y-97202380D02*
X144228571Y-96202380D01*
X144561904Y-96916666D01*
X144895238Y-96202380D01*
X144895238Y-97202380D01*
X145561904Y-96202380D02*
X145752380Y-96202380D01*
X145847619Y-96250000D01*
X145942857Y-96345238D01*
X145990476Y-96535714D01*
X145990476Y-96869047D01*
X145942857Y-97059523D01*
X145847619Y-97154761D01*
X145752380Y-97202380D01*
X145561904Y-97202380D01*
X145466666Y-97154761D01*
X145371428Y-97059523D01*
X145323809Y-96869047D01*
X145323809Y-96535714D01*
X145371428Y-96345238D01*
X145466666Y-96250000D01*
X145561904Y-96202380D01*
X146371428Y-97154761D02*
X146514285Y-97202380D01*
X146752380Y-97202380D01*
X146847619Y-97154761D01*
X146895238Y-97107142D01*
X146942857Y-97011904D01*
X146942857Y-96916666D01*
X146895238Y-96821428D01*
X146847619Y-96773809D01*
X146752380Y-96726190D01*
X146561904Y-96678571D01*
X146466666Y-96630952D01*
X146419047Y-96583333D01*
X146371428Y-96488095D01*
X146371428Y-96392857D01*
X146419047Y-96297619D01*
X146466666Y-96250000D01*
X146561904Y-96202380D01*
X146800000Y-96202380D01*
X146942857Y-96250000D01*
X147371428Y-97202380D02*
X147371428Y-96202380D01*
X147997619Y-95507142D02*
X148997619Y-95507142D01*
X148997619Y-95888095D01*
X148950000Y-95983333D01*
X148902380Y-96030952D01*
X148807142Y-96078571D01*
X148664285Y-96078571D01*
X148569047Y-96030952D01*
X148521428Y-95983333D01*
X148473809Y-95888095D01*
X148473809Y-95507142D01*
X148283333Y-96459523D02*
X148283333Y-96935714D01*
X147997619Y-96364285D02*
X148997619Y-96697619D01*
X147997619Y-97030952D01*
X147997619Y-97888095D02*
X147997619Y-97316666D01*
X147997619Y-97602380D02*
X148997619Y-97602380D01*
X148854761Y-97507142D01*
X148759523Y-97411904D01*
X148711904Y-97316666D01*
X148664285Y-98745238D02*
X147997619Y-98745238D01*
X149045238Y-98507142D02*
X148330952Y-98269047D01*
X148330952Y-98888095D01*
X156438095Y-95650000D02*
X156342857Y-95602380D01*
X156200000Y-95602380D01*
X156057142Y-95650000D01*
X155961904Y-95745238D01*
X155914285Y-95840476D01*
X155866666Y-96030952D01*
X155866666Y-96173809D01*
X155914285Y-96364285D01*
X155961904Y-96459523D01*
X156057142Y-96554761D01*
X156200000Y-96602380D01*
X156295238Y-96602380D01*
X156438095Y-96554761D01*
X156485714Y-96507142D01*
X156485714Y-96173809D01*
X156295238Y-96173809D01*
X156914285Y-96602380D02*
X156914285Y-95602380D01*
X157485714Y-96602380D01*
X157485714Y-95602380D01*
X157961904Y-96602380D02*
X157961904Y-95602380D01*
X158200000Y-95602380D01*
X158342857Y-95650000D01*
X158438095Y-95745238D01*
X158485714Y-95840476D01*
X158533333Y-96030952D01*
X158533333Y-96173809D01*
X158485714Y-96364285D01*
X158438095Y-96459523D01*
X158342857Y-96554761D01*
X158200000Y-96602380D01*
X157961904Y-96602380D01*
X155557142Y-99124602D02*
X155557142Y-98124602D01*
X155938095Y-98124602D01*
X156033333Y-98172222D01*
X156080952Y-98219841D01*
X156128571Y-98315079D01*
X156128571Y-98457936D01*
X156080952Y-98553174D01*
X156033333Y-98600793D01*
X155938095Y-98648412D01*
X155557142Y-98648412D01*
X156509523Y-98838888D02*
X156985714Y-98838888D01*
X156414285Y-99124602D02*
X156747619Y-98124602D01*
X157080952Y-99124602D01*
X157938095Y-99124602D02*
X157366666Y-99124602D01*
X157652380Y-99124602D02*
X157652380Y-98124602D01*
X157557142Y-98267460D01*
X157461904Y-98362698D01*
X157366666Y-98410317D01*
X158842857Y-98124602D02*
X158366666Y-98124602D01*
X158319047Y-98600793D01*
X158366666Y-98553174D01*
X158461904Y-98505555D01*
X158700000Y-98505555D01*
X158795238Y-98553174D01*
X158842857Y-98600793D01*
X158890476Y-98696031D01*
X158890476Y-98934126D01*
X158842857Y-99029364D01*
X158795238Y-99076983D01*
X158700000Y-99124602D01*
X158461904Y-99124602D01*
X158366666Y-99076983D01*
X158319047Y-99029364D01*
X155557142Y-101646824D02*
X155557142Y-100646824D01*
X155938095Y-100646824D01*
X156033333Y-100694444D01*
X156080952Y-100742063D01*
X156128571Y-100837301D01*
X156128571Y-100980158D01*
X156080952Y-101075396D01*
X156033333Y-101123015D01*
X155938095Y-101170634D01*
X155557142Y-101170634D01*
X156509523Y-101361110D02*
X156985714Y-101361110D01*
X156414285Y-101646824D02*
X156747619Y-100646824D01*
X157080952Y-101646824D01*
X157938095Y-101646824D02*
X157366666Y-101646824D01*
X157652380Y-101646824D02*
X157652380Y-100646824D01*
X157557142Y-100789682D01*
X157461904Y-100884920D01*
X157366666Y-100932539D01*
X158414285Y-101646824D02*
X158604761Y-101646824D01*
X158700000Y-101599205D01*
X158747619Y-101551586D01*
X158842857Y-101408729D01*
X158890476Y-101218253D01*
X158890476Y-100837301D01*
X158842857Y-100742063D01*
X158795238Y-100694444D01*
X158700000Y-100646824D01*
X158509523Y-100646824D01*
X158414285Y-100694444D01*
X158366666Y-100742063D01*
X158319047Y-100837301D01*
X158319047Y-101075396D01*
X158366666Y-101170634D01*
X158414285Y-101218253D01*
X158509523Y-101265872D01*
X158700000Y-101265872D01*
X158795238Y-101218253D01*
X158842857Y-101170634D01*
X158890476Y-101075396D01*
X155557142Y-104169046D02*
X155557142Y-103169046D01*
X155938095Y-103169046D01*
X156033333Y-103216666D01*
X156080952Y-103264285D01*
X156128571Y-103359523D01*
X156128571Y-103502380D01*
X156080952Y-103597618D01*
X156033333Y-103645237D01*
X155938095Y-103692856D01*
X155557142Y-103692856D01*
X156509523Y-103883332D02*
X156985714Y-103883332D01*
X156414285Y-104169046D02*
X156747619Y-103169046D01*
X157080952Y-104169046D01*
X157938095Y-104169046D02*
X157366666Y-104169046D01*
X157652380Y-104169046D02*
X157652380Y-103169046D01*
X157557142Y-103311904D01*
X157461904Y-103407142D01*
X157366666Y-103454761D01*
X158509523Y-103597618D02*
X158414285Y-103549999D01*
X158366666Y-103502380D01*
X158319047Y-103407142D01*
X158319047Y-103359523D01*
X158366666Y-103264285D01*
X158414285Y-103216666D01*
X158509523Y-103169046D01*
X158700000Y-103169046D01*
X158795238Y-103216666D01*
X158842857Y-103264285D01*
X158890476Y-103359523D01*
X158890476Y-103407142D01*
X158842857Y-103502380D01*
X158795238Y-103549999D01*
X158700000Y-103597618D01*
X158509523Y-103597618D01*
X158414285Y-103645237D01*
X158366666Y-103692856D01*
X158319047Y-103788094D01*
X158319047Y-103978570D01*
X158366666Y-104073808D01*
X158414285Y-104121427D01*
X158509523Y-104169046D01*
X158700000Y-104169046D01*
X158795238Y-104121427D01*
X158842857Y-104073808D01*
X158890476Y-103978570D01*
X158890476Y-103788094D01*
X158842857Y-103692856D01*
X158795238Y-103645237D01*
X158700000Y-103597618D01*
X156009523Y-106643649D02*
X156152380Y-106691268D01*
X156390476Y-106691268D01*
X156485714Y-106643649D01*
X156533333Y-106596030D01*
X156580952Y-106500792D01*
X156580952Y-106405554D01*
X156533333Y-106310316D01*
X156485714Y-106262697D01*
X156390476Y-106215078D01*
X156200000Y-106167459D01*
X156104761Y-106119840D01*
X156057142Y-106072221D01*
X156009523Y-105976983D01*
X156009523Y-105881745D01*
X156057142Y-105786507D01*
X156104761Y-105738888D01*
X156200000Y-105691268D01*
X156438095Y-105691268D01*
X156580952Y-105738888D01*
X157580952Y-106596030D02*
X157533333Y-106643649D01*
X157390476Y-106691268D01*
X157295238Y-106691268D01*
X157152380Y-106643649D01*
X157057142Y-106548411D01*
X157009523Y-106453173D01*
X156961904Y-106262697D01*
X156961904Y-106119840D01*
X157009523Y-105929364D01*
X157057142Y-105834126D01*
X157152380Y-105738888D01*
X157295238Y-105691268D01*
X157390476Y-105691268D01*
X157533333Y-105738888D01*
X157580952Y-105786507D01*
X158485714Y-106691268D02*
X158009523Y-106691268D01*
X158009523Y-105691268D01*
X155985714Y-109165871D02*
X156128571Y-109213490D01*
X156366666Y-109213490D01*
X156461904Y-109165871D01*
X156509523Y-109118252D01*
X156557142Y-109023014D01*
X156557142Y-108927776D01*
X156509523Y-108832538D01*
X156461904Y-108784919D01*
X156366666Y-108737300D01*
X156176190Y-108689681D01*
X156080952Y-108642062D01*
X156033333Y-108594443D01*
X155985714Y-108499205D01*
X155985714Y-108403967D01*
X156033333Y-108308729D01*
X156080952Y-108261110D01*
X156176190Y-108213490D01*
X156414285Y-108213490D01*
X156557142Y-108261110D01*
X156985714Y-109213490D02*
X156985714Y-108213490D01*
X157223809Y-108213490D01*
X157366666Y-108261110D01*
X157461904Y-108356348D01*
X157509523Y-108451586D01*
X157557142Y-108642062D01*
X157557142Y-108784919D01*
X157509523Y-108975395D01*
X157461904Y-109070633D01*
X157366666Y-109165871D01*
X157223809Y-109213490D01*
X156985714Y-109213490D01*
X157938095Y-108927776D02*
X158414285Y-108927776D01*
X157842857Y-109213490D02*
X158176190Y-108213490D01*
X158509523Y-109213490D01*
X155557142Y-111735712D02*
X155557142Y-110735712D01*
X155938095Y-110735712D01*
X156033333Y-110783332D01*
X156080952Y-110830951D01*
X156128571Y-110926189D01*
X156128571Y-111069046D01*
X156080952Y-111164284D01*
X156033333Y-111211903D01*
X155938095Y-111259522D01*
X155557142Y-111259522D01*
X156509523Y-111449998D02*
X156985714Y-111449998D01*
X156414285Y-111735712D02*
X156747619Y-110735712D01*
X157080952Y-111735712D01*
X157366666Y-110830951D02*
X157414285Y-110783332D01*
X157509523Y-110735712D01*
X157747619Y-110735712D01*
X157842857Y-110783332D01*
X157890476Y-110830951D01*
X157938095Y-110926189D01*
X157938095Y-111021427D01*
X157890476Y-111164284D01*
X157319047Y-111735712D01*
X157938095Y-111735712D01*
X158271428Y-110735712D02*
X158938095Y-110735712D01*
X158509523Y-111735712D01*
X155557142Y-114257934D02*
X155557142Y-113257934D01*
X155938095Y-113257934D01*
X156033333Y-113305554D01*
X156080952Y-113353173D01*
X156128571Y-113448411D01*
X156128571Y-113591268D01*
X156080952Y-113686506D01*
X156033333Y-113734125D01*
X155938095Y-113781744D01*
X155557142Y-113781744D01*
X156509523Y-113972220D02*
X156985714Y-113972220D01*
X156414285Y-114257934D02*
X156747619Y-113257934D01*
X157080952Y-114257934D01*
X157604761Y-113257934D02*
X157700000Y-113257934D01*
X157795238Y-113305554D01*
X157842857Y-113353173D01*
X157890476Y-113448411D01*
X157938095Y-113638887D01*
X157938095Y-113876982D01*
X157890476Y-114067458D01*
X157842857Y-114162696D01*
X157795238Y-114210315D01*
X157700000Y-114257934D01*
X157604761Y-114257934D01*
X157509523Y-114210315D01*
X157461904Y-114162696D01*
X157414285Y-114067458D01*
X157366666Y-113876982D01*
X157366666Y-113638887D01*
X157414285Y-113448411D01*
X157461904Y-113353173D01*
X157509523Y-113305554D01*
X157604761Y-113257934D01*
X158509523Y-113686506D02*
X158414285Y-113638887D01*
X158366666Y-113591268D01*
X158319047Y-113496030D01*
X158319047Y-113448411D01*
X158366666Y-113353173D01*
X158414285Y-113305554D01*
X158509523Y-113257934D01*
X158700000Y-113257934D01*
X158795238Y-113305554D01*
X158842857Y-113353173D01*
X158890476Y-113448411D01*
X158890476Y-113496030D01*
X158842857Y-113591268D01*
X158795238Y-113638887D01*
X158700000Y-113686506D01*
X158509523Y-113686506D01*
X158414285Y-113734125D01*
X158366666Y-113781744D01*
X158319047Y-113876982D01*
X158319047Y-114067458D01*
X158366666Y-114162696D01*
X158414285Y-114210315D01*
X158509523Y-114257934D01*
X158700000Y-114257934D01*
X158795238Y-114210315D01*
X158842857Y-114162696D01*
X158890476Y-114067458D01*
X158890476Y-113876982D01*
X158842857Y-113781744D01*
X158795238Y-113734125D01*
X158700000Y-113686506D01*
X155557142Y-116780156D02*
X155557142Y-115780156D01*
X155938095Y-115780156D01*
X156033333Y-115827776D01*
X156080952Y-115875395D01*
X156128571Y-115970633D01*
X156128571Y-116113490D01*
X156080952Y-116208728D01*
X156033333Y-116256347D01*
X155938095Y-116303966D01*
X155557142Y-116303966D01*
X156509523Y-116494442D02*
X156985714Y-116494442D01*
X156414285Y-116780156D02*
X156747619Y-115780156D01*
X157080952Y-116780156D01*
X157604761Y-115780156D02*
X157700000Y-115780156D01*
X157795238Y-115827776D01*
X157842857Y-115875395D01*
X157890476Y-115970633D01*
X157938095Y-116161109D01*
X157938095Y-116399204D01*
X157890476Y-116589680D01*
X157842857Y-116684918D01*
X157795238Y-116732537D01*
X157700000Y-116780156D01*
X157604761Y-116780156D01*
X157509523Y-116732537D01*
X157461904Y-116684918D01*
X157414285Y-116589680D01*
X157366666Y-116399204D01*
X157366666Y-116161109D01*
X157414285Y-115970633D01*
X157461904Y-115875395D01*
X157509523Y-115827776D01*
X157604761Y-115780156D01*
X158271428Y-115780156D02*
X158938095Y-115780156D01*
X158509523Y-116780156D01*
D12*
%TO.C,JP3*%
X126500000Y-86950000D02*
X126500000Y-86350000D01*
X128600000Y-87650000D02*
X127200000Y-87650000D01*
X129300000Y-86350000D02*
X129300000Y-86950000D01*
X127200000Y-85650000D02*
X128600000Y-85650000D01*
X126500000Y-86350000D02*
G75*
G02*
X127200000Y-85650000I700000J0D01*
G01*
X127200000Y-87650000D02*
G75*
G02*
X126500000Y-86950000I0J700000D01*
G01*
X129300000Y-86950000D02*
G75*
G02*
X128600000Y-87650000I-700000J0D01*
G01*
X128600000Y-85650000D02*
G75*
G02*
X129300000Y-86350000I0J-700000D01*
G01*
%TO.C,JP1*%
X136798000Y-87750000D02*
X136798000Y-87150000D01*
X140248000Y-88450000D02*
X137448000Y-88450000D01*
X140898000Y-87150000D02*
X140898000Y-87750000D01*
X137448000Y-86450000D02*
X140248000Y-86450000D01*
X136798000Y-87150000D02*
G75*
G02*
X137498000Y-86450000I700000J0D01*
G01*
X137498000Y-88450000D02*
G75*
G02*
X136798000Y-87750000I0J700000D01*
G01*
X140898000Y-87750000D02*
G75*
G02*
X140198000Y-88450000I-700000J0D01*
G01*
X140198000Y-86450000D02*
G75*
G02*
X140898000Y-87150000I0J-700000D01*
G01*
%TO.C,J6*%
X131490000Y-92570000D02*
X131490000Y-95230000D01*
X149330000Y-92570000D02*
X131490000Y-92570000D01*
X149330000Y-95230000D02*
X131490000Y-95230000D01*
X149330000Y-92570000D02*
X149330000Y-95230000D01*
X150600000Y-92570000D02*
X151930000Y-92570000D01*
X151930000Y-92570000D02*
X151930000Y-93900000D01*
D10*
%TO.C,J1*%
X146175000Y-80050000D02*
X138675000Y-80050000D01*
D12*
X146295000Y-80300000D02*
X146295000Y-80050000D01*
X138555000Y-80300000D02*
X138555000Y-80050000D01*
X139425000Y-84770000D02*
X138555000Y-84770000D01*
X146295000Y-84770000D02*
X146295000Y-82700000D01*
X138555000Y-84770000D02*
X138555000Y-82700000D01*
X146295000Y-84770000D02*
X145425000Y-84770000D01*
X141125000Y-85000000D02*
X141425000Y-85300000D01*
X141125000Y-85000000D02*
X140825000Y-85300000D01*
X141425000Y-85300000D02*
X140825000Y-85300000D01*
%TO.C,C1*%
X145660000Y-87968748D02*
X145660000Y-89391252D01*
X143840000Y-87968748D02*
X143840000Y-89391252D01*
%TO.C,C2*%
X152510000Y-89391252D02*
X152510000Y-87968748D01*
X150690000Y-89391252D02*
X150690000Y-87968748D01*
%TO.C,C3*%
X133857000Y-87968748D02*
X133857000Y-89391252D01*
X132037000Y-87968748D02*
X132037000Y-89391252D01*
%TO.C,D1*%
X158160000Y-91740000D02*
X155300000Y-91740000D01*
X158160000Y-93660000D02*
X158160000Y-91740000D01*
X155300000Y-93660000D02*
X158160000Y-93660000D01*
%TO.C,D2*%
X149855000Y-117293000D02*
X149855000Y-120153000D01*
X149855000Y-120153000D02*
X151775000Y-120153000D01*
X151775000Y-120153000D02*
X151775000Y-117293000D01*
D10*
%TO.C,IC1*%
X147925000Y-98950000D02*
X146675000Y-98950000D01*
X147925000Y-100450000D02*
X147925000Y-98950000D01*
X134425000Y-98950000D02*
X135675000Y-98950000D01*
X134425000Y-100450000D02*
X134425000Y-98950000D01*
X134425000Y-115950000D02*
X134425000Y-114450000D01*
X135675000Y-115950000D02*
X134425000Y-115950000D01*
X143675000Y-115950000D02*
X138675000Y-115950000D01*
X147925000Y-115950000D02*
X147925000Y-114450000D01*
X146675000Y-115950000D02*
X147925000Y-115950000D01*
D13*
X149875000Y-113450000D02*
X149875000Y-113450000D01*
X149675000Y-113450000D02*
X149675000Y-113450000D01*
X149875000Y-113450000D02*
G75*
G02*
X149675000Y-113450000I-100000J0D01*
G01*
X149675000Y-113450000D02*
G75*
G02*
X149875000Y-113450000I100000J0D01*
G01*
D12*
%TO.C,J2*%
X135660000Y-80970000D02*
X135660000Y-82100000D01*
X134900000Y-80970000D02*
X135660000Y-80970000D01*
X135595000Y-83677530D02*
X135595000Y-84500000D01*
X135595000Y-82860000D02*
X135595000Y-83062470D01*
X135463471Y-82860000D02*
X135595000Y-82860000D01*
X134193471Y-82860000D02*
X134336529Y-82860000D01*
X134140000Y-82663471D02*
X134140000Y-82806529D01*
X134140000Y-80970000D02*
X134140000Y-81536529D01*
X135595000Y-84500000D02*
X129125000Y-84500000D01*
X134140000Y-80970000D02*
X129125000Y-80970000D01*
X129125000Y-82407530D02*
X129125000Y-83062470D01*
X129125000Y-83677530D02*
X129125000Y-84500000D01*
X129125000Y-80970000D02*
X129125000Y-81792470D01*
%TO.C,J3*%
X154880000Y-94610000D02*
X152220000Y-94610000D01*
X154880000Y-117530000D02*
X154880000Y-94610000D01*
X152220000Y-117530000D02*
X152220000Y-94610000D01*
X154880000Y-117530000D02*
X152220000Y-117530000D01*
X154880000Y-118800000D02*
X154880000Y-120130000D01*
X154880000Y-120130000D02*
X153550000Y-120130000D01*
%TO.C,J5*%
X128420000Y-120140000D02*
X131080000Y-120140000D01*
X128420000Y-97220000D02*
X128420000Y-120140000D01*
X131080000Y-97220000D02*
X131080000Y-120140000D01*
X128420000Y-97220000D02*
X131080000Y-97220000D01*
X128420000Y-95950000D02*
X128420000Y-94620000D01*
X128420000Y-94620000D02*
X129750000Y-94620000D01*
%TO.C,J4*%
X154430000Y-81070000D02*
X154430000Y-82400000D01*
X153100000Y-81070000D02*
X154430000Y-81070000D01*
X151830000Y-81070000D02*
X151830000Y-83730000D01*
X151830000Y-83730000D02*
X149230000Y-83730000D01*
X151830000Y-81070000D02*
X149230000Y-81070000D01*
X149230000Y-81070000D02*
X149230000Y-83730000D01*
%TO.C,JP2*%
X136798000Y-90750000D02*
X136798000Y-90150000D01*
X140248000Y-91450000D02*
X137448000Y-91450000D01*
X140898000Y-90150000D02*
X140898000Y-90750000D01*
X137448000Y-89450000D02*
X140248000Y-89450000D01*
X136798000Y-90150000D02*
G75*
G02*
X137498000Y-89450000I700000J0D01*
G01*
X137498000Y-91450000D02*
G75*
G02*
X136798000Y-90750000I0J700000D01*
G01*
X140898000Y-90750000D02*
G75*
G02*
X140198000Y-91450000I-700000J0D01*
G01*
X140198000Y-89450000D02*
G75*
G02*
X140898000Y-90150000I0J-700000D01*
G01*
%TO.C,R1*%
X133547936Y-119978000D02*
X134752064Y-119978000D01*
X133547936Y-118158000D02*
X134752064Y-118158000D01*
%TO.C,R2*%
X157810000Y-88047936D02*
X157810000Y-89252064D01*
X155990000Y-88047936D02*
X155990000Y-89252064D01*
%TO.C,R3*%
X146454936Y-118158000D02*
X147659064Y-118158000D01*
X146454936Y-119978000D02*
X147659064Y-119978000D01*
%TO.C,U1*%
X149755000Y-87940000D02*
X148825000Y-87940000D01*
X146595000Y-87940000D02*
X147525000Y-87940000D01*
X146595000Y-87940000D02*
X146595000Y-90100000D01*
X149755000Y-87940000D02*
X149755000Y-89400000D01*
D11*
%TO.C,U2*%
X126225000Y-88175000D02*
X126225000Y-88400000D01*
X129575000Y-88175000D02*
X129575000Y-88475000D01*
X129575000Y-91525000D02*
X129575000Y-91225000D01*
X126225000Y-91525000D02*
X126225000Y-91225000D01*
X126225000Y-88175000D02*
X129575000Y-88175000D01*
X126225000Y-91525000D02*
X129575000Y-91525000D01*
X126225000Y-88400000D02*
X125000000Y-88400000D01*
%TO.C,TP1*%
D10*
X156716666Y-80116666D02*
X157116666Y-80116666D01*
X156916666Y-80816666D02*
X156916666Y-80116666D01*
X157350000Y-80816666D02*
X157350000Y-80116666D01*
X157616666Y-80116666D01*
X157683333Y-80150000D01*
X157716666Y-80183333D01*
X157750000Y-80250000D01*
X157750000Y-80350000D01*
X157716666Y-80416666D01*
X157683333Y-80450000D01*
X157616666Y-80483333D01*
X157350000Y-80483333D01*
X158416666Y-80816666D02*
X158016666Y-80816666D01*
X158216666Y-80816666D02*
X158216666Y-80116666D01*
X158150000Y-80216666D01*
X158083333Y-80283333D01*
X158016666Y-80316666D01*
%TO.C,TP2*%
X125166666Y-80166666D02*
X125566666Y-80166666D01*
X125366666Y-80866666D02*
X125366666Y-80166666D01*
X125800000Y-80866666D02*
X125800000Y-80166666D01*
X126066666Y-80166666D01*
X126133333Y-80200000D01*
X126166666Y-80233333D01*
X126200000Y-80300000D01*
X126200000Y-80400000D01*
X126166666Y-80466666D01*
X126133333Y-80500000D01*
X126066666Y-80533333D01*
X125800000Y-80533333D01*
X126466666Y-80233333D02*
X126500000Y-80200000D01*
X126566666Y-80166666D01*
X126733333Y-80166666D01*
X126800000Y-80200000D01*
X126833333Y-80233333D01*
X126866666Y-80300000D01*
X126866666Y-80366666D01*
X126833333Y-80466666D01*
X126433333Y-80866666D01*
X126866666Y-80866666D01*
%TO.C,JP3*%
X124866666Y-86266666D02*
X124866666Y-86766666D01*
X124833333Y-86866666D01*
X124766666Y-86933333D01*
X124666666Y-86966666D01*
X124600000Y-86966666D01*
X125200000Y-86966666D02*
X125200000Y-86266666D01*
X125466666Y-86266666D01*
X125533333Y-86300000D01*
X125566666Y-86333333D01*
X125600000Y-86400000D01*
X125600000Y-86500000D01*
X125566666Y-86566666D01*
X125533333Y-86600000D01*
X125466666Y-86633333D01*
X125200000Y-86633333D01*
X125833333Y-86266666D02*
X126266666Y-86266666D01*
X126033333Y-86533333D01*
X126133333Y-86533333D01*
X126200000Y-86566666D01*
X126233333Y-86600000D01*
X126266666Y-86666666D01*
X126266666Y-86833333D01*
X126233333Y-86900000D01*
X126200000Y-86933333D01*
X126133333Y-86966666D01*
X125933333Y-86966666D01*
X125866666Y-86933333D01*
X125833333Y-86900000D01*
%TO.C,SW1*%
X139704666Y-118282933D02*
X139804666Y-118316266D01*
X139971333Y-118316266D01*
X140038000Y-118282933D01*
X140071333Y-118249600D01*
X140104666Y-118182933D01*
X140104666Y-118116266D01*
X140071333Y-118049600D01*
X140038000Y-118016266D01*
X139971333Y-117982933D01*
X139838000Y-117949600D01*
X139771333Y-117916266D01*
X139738000Y-117882933D01*
X139704666Y-117816266D01*
X139704666Y-117749600D01*
X139738000Y-117682933D01*
X139771333Y-117649600D01*
X139838000Y-117616266D01*
X140004666Y-117616266D01*
X140104666Y-117649600D01*
X140338000Y-117616266D02*
X140504666Y-118316266D01*
X140638000Y-117816266D01*
X140771333Y-118316266D01*
X140938000Y-117616266D01*
X141571333Y-118316266D02*
X141171333Y-118316266D01*
X141371333Y-118316266D02*
X141371333Y-117616266D01*
X141304666Y-117716266D01*
X141238000Y-117782933D01*
X141171333Y-117816266D01*
%TO.C,JP1*%
X138264666Y-85516666D02*
X138264666Y-86016666D01*
X138231333Y-86116666D01*
X138164666Y-86183333D01*
X138064666Y-86216666D01*
X137998000Y-86216666D01*
X138598000Y-86216666D02*
X138598000Y-85516666D01*
X138864666Y-85516666D01*
X138931333Y-85550000D01*
X138964666Y-85583333D01*
X138998000Y-85650000D01*
X138998000Y-85750000D01*
X138964666Y-85816666D01*
X138931333Y-85850000D01*
X138864666Y-85883333D01*
X138598000Y-85883333D01*
X139664666Y-86216666D02*
X139264666Y-86216666D01*
X139464666Y-86216666D02*
X139464666Y-85516666D01*
X139398000Y-85616666D01*
X139331333Y-85683333D01*
X139264666Y-85716666D01*
%TO.C,J6*%
X130616666Y-92566666D02*
X130616666Y-93066666D01*
X130583333Y-93166666D01*
X130516666Y-93233333D01*
X130416666Y-93266666D01*
X130350000Y-93266666D01*
X131250000Y-92566666D02*
X131116666Y-92566666D01*
X131050000Y-92600000D01*
X131016666Y-92633333D01*
X130950000Y-92733333D01*
X130916666Y-92866666D01*
X130916666Y-93133333D01*
X130950000Y-93200000D01*
X130983333Y-93233333D01*
X131050000Y-93266666D01*
X131183333Y-93266666D01*
X131250000Y-93233333D01*
X131283333Y-93200000D01*
X131316666Y-93133333D01*
X131316666Y-92966666D01*
X131283333Y-92900000D01*
X131250000Y-92866666D01*
X131183333Y-92833333D01*
X131050000Y-92833333D01*
X130983333Y-92866666D01*
X130950000Y-92900000D01*
X130916666Y-92966666D01*
%TO.C,J1*%
X146816666Y-84066666D02*
X146816666Y-84566666D01*
X146783333Y-84666666D01*
X146716666Y-84733333D01*
X146616666Y-84766666D01*
X146550000Y-84766666D01*
X147516666Y-84766666D02*
X147116666Y-84766666D01*
X147316666Y-84766666D02*
X147316666Y-84066666D01*
X147250000Y-84166666D01*
X147183333Y-84233333D01*
X147116666Y-84266666D01*
%TO.C,C1*%
X144633333Y-86060000D02*
X144600000Y-86093333D01*
X144500000Y-86126666D01*
X144433333Y-86126666D01*
X144333333Y-86093333D01*
X144266666Y-86026666D01*
X144233333Y-85960000D01*
X144200000Y-85826666D01*
X144200000Y-85726666D01*
X144233333Y-85593333D01*
X144266666Y-85526666D01*
X144333333Y-85460000D01*
X144433333Y-85426666D01*
X144500000Y-85426666D01*
X144600000Y-85460000D01*
X144633333Y-85493333D01*
X145300000Y-86126666D02*
X144900000Y-86126666D01*
X145100000Y-86126666D02*
X145100000Y-85426666D01*
X145033333Y-85526666D01*
X144966666Y-85593333D01*
X144900000Y-85626666D01*
%TO.C,C2*%
X151500003Y-86100000D02*
X151466670Y-86133333D01*
X151366670Y-86166666D01*
X151300003Y-86166666D01*
X151200003Y-86133333D01*
X151133336Y-86066666D01*
X151100003Y-86000000D01*
X151066670Y-85866666D01*
X151066670Y-85766666D01*
X151100003Y-85633333D01*
X151133336Y-85566666D01*
X151200003Y-85500000D01*
X151300003Y-85466666D01*
X151366670Y-85466666D01*
X151466670Y-85500000D01*
X151500003Y-85533333D01*
X151766670Y-85533333D02*
X151800003Y-85500000D01*
X151866670Y-85466666D01*
X152033336Y-85466666D01*
X152100003Y-85500000D01*
X152133336Y-85533333D01*
X152166670Y-85600000D01*
X152166670Y-85666666D01*
X152133336Y-85766666D01*
X151733336Y-86166666D01*
X152166670Y-86166666D01*
%TO.C,C3*%
X132867000Y-86110000D02*
X132833667Y-86143333D01*
X132733667Y-86176666D01*
X132667000Y-86176666D01*
X132567000Y-86143333D01*
X132500333Y-86076666D01*
X132467000Y-86010000D01*
X132433667Y-85876666D01*
X132433667Y-85776666D01*
X132467000Y-85643333D01*
X132500333Y-85576666D01*
X132567000Y-85510000D01*
X132667000Y-85476666D01*
X132733667Y-85476666D01*
X132833667Y-85510000D01*
X132867000Y-85543333D01*
X133100333Y-85476666D02*
X133533667Y-85476666D01*
X133300333Y-85743333D01*
X133400333Y-85743333D01*
X133467000Y-85776666D01*
X133500333Y-85810000D01*
X133533667Y-85876666D01*
X133533667Y-86043333D01*
X133500333Y-86110000D01*
X133467000Y-86143333D01*
X133400333Y-86176666D01*
X133200333Y-86176666D01*
X133133667Y-86143333D01*
X133100333Y-86110000D01*
%TO.C,D1*%
X153183333Y-92966666D02*
X153183333Y-92266666D01*
X153350000Y-92266666D01*
X153450000Y-92300000D01*
X153516666Y-92366666D01*
X153550000Y-92433333D01*
X153583333Y-92566666D01*
X153583333Y-92666666D01*
X153550000Y-92800000D01*
X153516666Y-92866666D01*
X153450000Y-92933333D01*
X153350000Y-92966666D01*
X153183333Y-92966666D01*
X154250000Y-92966666D02*
X153850000Y-92966666D01*
X154050000Y-92966666D02*
X154050000Y-92266666D01*
X153983333Y-92366666D01*
X153916666Y-92433333D01*
X153850000Y-92466666D01*
%TO.C,D2*%
X150333333Y-116416266D02*
X150333333Y-115716266D01*
X150500000Y-115716266D01*
X150600000Y-115749600D01*
X150666666Y-115816266D01*
X150700000Y-115882933D01*
X150733333Y-116016266D01*
X150733333Y-116116266D01*
X150700000Y-116249600D01*
X150666666Y-116316266D01*
X150600000Y-116382933D01*
X150500000Y-116416266D01*
X150333333Y-116416266D01*
X151000000Y-115782933D02*
X151033333Y-115749600D01*
X151100000Y-115716266D01*
X151266666Y-115716266D01*
X151333333Y-115749600D01*
X151366666Y-115782933D01*
X151400000Y-115849600D01*
X151400000Y-115916266D01*
X151366666Y-116016266D01*
X150966666Y-116416266D01*
X151400000Y-116416266D01*
%TO.C,IC1*%
X140766666Y-116866666D02*
X140766666Y-116166666D01*
X141500000Y-116800000D02*
X141466666Y-116833333D01*
X141366666Y-116866666D01*
X141300000Y-116866666D01*
X141200000Y-116833333D01*
X141133333Y-116766666D01*
X141100000Y-116700000D01*
X141066666Y-116566666D01*
X141066666Y-116466666D01*
X141100000Y-116333333D01*
X141133333Y-116266666D01*
X141200000Y-116200000D01*
X141300000Y-116166666D01*
X141366666Y-116166666D01*
X141466666Y-116200000D01*
X141500000Y-116233333D01*
X142166666Y-116866666D02*
X141766666Y-116866666D01*
X141966666Y-116866666D02*
X141966666Y-116166666D01*
X141900000Y-116266666D01*
X141833333Y-116333333D01*
X141766666Y-116366666D01*
%TO.C,J2*%
X136166666Y-81016666D02*
X136166666Y-81516666D01*
X136133333Y-81616666D01*
X136066666Y-81683333D01*
X135966666Y-81716666D01*
X135900000Y-81716666D01*
X136466666Y-81083333D02*
X136500000Y-81050000D01*
X136566666Y-81016666D01*
X136733333Y-81016666D01*
X136800000Y-81050000D01*
X136833333Y-81083333D01*
X136866666Y-81150000D01*
X136866666Y-81216666D01*
X136833333Y-81316666D01*
X136433333Y-81716666D01*
X136866666Y-81716666D01*
%TO.C,J3*%
X154216666Y-93766666D02*
X154216666Y-94266666D01*
X154183333Y-94366666D01*
X154116666Y-94433333D01*
X154016666Y-94466666D01*
X153950000Y-94466666D01*
X154483333Y-93766666D02*
X154916666Y-93766666D01*
X154683333Y-94033333D01*
X154783333Y-94033333D01*
X154850000Y-94066666D01*
X154883333Y-94100000D01*
X154916666Y-94166666D01*
X154916666Y-94333333D01*
X154883333Y-94400000D01*
X154850000Y-94433333D01*
X154783333Y-94466666D01*
X154583333Y-94466666D01*
X154516666Y-94433333D01*
X154483333Y-94400000D01*
%TO.C,J5*%
X128716666Y-93716666D02*
X128716666Y-94216666D01*
X128683333Y-94316666D01*
X128616666Y-94383333D01*
X128516666Y-94416666D01*
X128450000Y-94416666D01*
X129383333Y-93716666D02*
X129050000Y-93716666D01*
X129016666Y-94050000D01*
X129050000Y-94016666D01*
X129116666Y-93983333D01*
X129283333Y-93983333D01*
X129350000Y-94016666D01*
X129383333Y-94050000D01*
X129416666Y-94116666D01*
X129416666Y-94283333D01*
X129383333Y-94350000D01*
X129350000Y-94383333D01*
X129283333Y-94416666D01*
X129116666Y-94416666D01*
X129050000Y-94383333D01*
X129016666Y-94350000D01*
%TO.C,J4*%
X149489166Y-83966666D02*
X149489166Y-84466666D01*
X149455833Y-84566666D01*
X149389166Y-84633333D01*
X149289166Y-84666666D01*
X149222500Y-84666666D01*
X150122500Y-84200000D02*
X150122500Y-84666666D01*
X149955833Y-83933333D02*
X149789166Y-84433333D01*
X150222500Y-84433333D01*
%TO.C,JP2*%
X138214666Y-88616666D02*
X138214666Y-89116666D01*
X138181333Y-89216666D01*
X138114666Y-89283333D01*
X138014666Y-89316666D01*
X137948000Y-89316666D01*
X138548000Y-89316666D02*
X138548000Y-88616666D01*
X138814666Y-88616666D01*
X138881333Y-88650000D01*
X138914666Y-88683333D01*
X138948000Y-88750000D01*
X138948000Y-88850000D01*
X138914666Y-88916666D01*
X138881333Y-88950000D01*
X138814666Y-88983333D01*
X138548000Y-88983333D01*
X139214666Y-88683333D02*
X139248000Y-88650000D01*
X139314666Y-88616666D01*
X139481333Y-88616666D01*
X139548000Y-88650000D01*
X139581333Y-88683333D01*
X139614666Y-88750000D01*
X139614666Y-88816666D01*
X139581333Y-88916666D01*
X139181333Y-89316666D01*
X139614666Y-89316666D01*
%TO.C,R1*%
X134033333Y-117966266D02*
X133800000Y-117632933D01*
X133633333Y-117966266D02*
X133633333Y-117266266D01*
X133900000Y-117266266D01*
X133966666Y-117299600D01*
X134000000Y-117332933D01*
X134033333Y-117399600D01*
X134033333Y-117499600D01*
X134000000Y-117566266D01*
X133966666Y-117599600D01*
X133900000Y-117632933D01*
X133633333Y-117632933D01*
X134700000Y-117966266D02*
X134300000Y-117966266D01*
X134500000Y-117966266D02*
X134500000Y-117266266D01*
X134433333Y-117366266D01*
X134366666Y-117432933D01*
X134300000Y-117466266D01*
%TO.C,R2*%
X156783333Y-86166666D02*
X156550000Y-85833333D01*
X156383333Y-86166666D02*
X156383333Y-85466666D01*
X156650000Y-85466666D01*
X156716666Y-85500000D01*
X156750000Y-85533333D01*
X156783333Y-85600000D01*
X156783333Y-85700000D01*
X156750000Y-85766666D01*
X156716666Y-85800000D01*
X156650000Y-85833333D01*
X156383333Y-85833333D01*
X157050000Y-85533333D02*
X157083333Y-85500000D01*
X157150000Y-85466666D01*
X157316666Y-85466666D01*
X157383333Y-85500000D01*
X157416666Y-85533333D01*
X157450000Y-85600000D01*
X157450000Y-85666666D01*
X157416666Y-85766666D01*
X157016666Y-86166666D01*
X157450000Y-86166666D01*
%TO.C,R3*%
X146933333Y-117966266D02*
X146700000Y-117632933D01*
X146533333Y-117966266D02*
X146533333Y-117266266D01*
X146800000Y-117266266D01*
X146866666Y-117299600D01*
X146900000Y-117332933D01*
X146933333Y-117399600D01*
X146933333Y-117499600D01*
X146900000Y-117566266D01*
X146866666Y-117599600D01*
X146800000Y-117632933D01*
X146533333Y-117632933D01*
X147166666Y-117266266D02*
X147600000Y-117266266D01*
X147366666Y-117532933D01*
X147466666Y-117532933D01*
X147533333Y-117566266D01*
X147566666Y-117599600D01*
X147600000Y-117666266D01*
X147600000Y-117832933D01*
X147566666Y-117899600D01*
X147533333Y-117932933D01*
X147466666Y-117966266D01*
X147266666Y-117966266D01*
X147200000Y-117932933D01*
X147166666Y-117899600D01*
%TO.C,U1*%
X147655002Y-86166666D02*
X147655002Y-86733333D01*
X147688336Y-86800000D01*
X147721669Y-86833333D01*
X147788336Y-86866666D01*
X147921669Y-86866666D01*
X147988336Y-86833333D01*
X148021669Y-86800000D01*
X148055002Y-86733333D01*
X148055002Y-86166666D01*
X148755002Y-86866666D02*
X148355002Y-86866666D01*
X148555002Y-86866666D02*
X148555002Y-86166666D01*
X148488336Y-86266666D01*
X148421669Y-86333333D01*
X148355002Y-86366666D01*
%TO.C,U2*%
X126266666Y-91766666D02*
X126266666Y-92333333D01*
X126300000Y-92400000D01*
X126333333Y-92433333D01*
X126400000Y-92466666D01*
X126533333Y-92466666D01*
X126600000Y-92433333D01*
X126633333Y-92400000D01*
X126666666Y-92333333D01*
X126666666Y-91766666D01*
X126966666Y-91833333D02*
X127000000Y-91800000D01*
X127066666Y-91766666D01*
X127233333Y-91766666D01*
X127300000Y-91800000D01*
X127333333Y-91833333D01*
X127366666Y-91900000D01*
X127366666Y-91966666D01*
X127333333Y-92066666D01*
X126933333Y-92466666D01*
X127366666Y-92466666D01*
%TD*%
%LPC*%
D14*
%TO.C,TP1*%
X157600000Y-82700000D03*
%TD*%
%TO.C,TP2*%
X126000000Y-82700000D03*
%TD*%
D10*
%TO.C,JP3*%
G36*
X128550000Y-85900602D02*
G01*
X128574534Y-85900602D01*
X128623365Y-85905412D01*
X128671490Y-85914984D01*
X128718445Y-85929228D01*
X128763778Y-85948005D01*
X128807051Y-85971136D01*
X128847850Y-85998396D01*
X128885779Y-86029524D01*
X128920476Y-86064221D01*
X128951604Y-86102150D01*
X128978864Y-86142949D01*
X129001995Y-86186222D01*
X129020772Y-86231555D01*
X129035016Y-86278510D01*
X129044588Y-86326635D01*
X129049398Y-86375466D01*
X129049398Y-86400000D01*
X129050000Y-86400000D01*
X129050000Y-86900000D01*
X129049398Y-86900000D01*
X129049398Y-86924534D01*
X129044588Y-86973365D01*
X129035016Y-87021490D01*
X129020772Y-87068445D01*
X129001995Y-87113778D01*
X128978864Y-87157051D01*
X128951604Y-87197850D01*
X128920476Y-87235779D01*
X128885779Y-87270476D01*
X128847850Y-87301604D01*
X128807051Y-87328864D01*
X128763778Y-87351995D01*
X128718445Y-87370772D01*
X128671490Y-87385016D01*
X128623365Y-87394588D01*
X128574534Y-87399398D01*
X128550000Y-87399398D01*
X128550000Y-87400000D01*
X128050000Y-87400000D01*
X128050000Y-85900000D01*
X128550000Y-85900000D01*
X128550000Y-85900602D01*
G37*
G36*
X127750000Y-87400000D02*
G01*
X127250000Y-87400000D01*
X127250000Y-87399398D01*
X127225466Y-87399398D01*
X127176635Y-87394588D01*
X127128510Y-87385016D01*
X127081555Y-87370772D01*
X127036222Y-87351995D01*
X126992949Y-87328864D01*
X126952150Y-87301604D01*
X126914221Y-87270476D01*
X126879524Y-87235779D01*
X126848396Y-87197850D01*
X126821136Y-87157051D01*
X126798005Y-87113778D01*
X126779228Y-87068445D01*
X126764984Y-87021490D01*
X126755412Y-86973365D01*
X126750602Y-86924534D01*
X126750602Y-86900000D01*
X126750000Y-86900000D01*
X126750000Y-86400000D01*
X126750602Y-86400000D01*
X126750602Y-86375466D01*
X126755412Y-86326635D01*
X126764984Y-86278510D01*
X126779228Y-86231555D01*
X126798005Y-86186222D01*
X126821136Y-86142949D01*
X126848396Y-86102150D01*
X126879524Y-86064221D01*
X126914221Y-86029524D01*
X126952150Y-85998396D01*
X126992949Y-85971136D01*
X127036222Y-85948005D01*
X127081555Y-85929228D01*
X127128510Y-85914984D01*
X127176635Y-85905412D01*
X127225466Y-85900602D01*
X127250000Y-85900602D01*
X127250000Y-85900000D01*
X127750000Y-85900000D01*
X127750000Y-87400000D01*
G37*
%TD*%
D15*
%TO.C,SW1*%
X143408000Y-119263000D03*
X137788000Y-119253000D03*
%TD*%
D10*
%TO.C,JP1*%
G36*
X138098000Y-88200000D02*
G01*
X137548000Y-88200000D01*
X137548000Y-88199398D01*
X137523466Y-88199398D01*
X137474635Y-88194588D01*
X137426510Y-88185016D01*
X137379555Y-88170772D01*
X137334222Y-88151995D01*
X137290949Y-88128864D01*
X137250150Y-88101604D01*
X137212221Y-88070476D01*
X137177524Y-88035779D01*
X137146396Y-87997850D01*
X137119136Y-87957051D01*
X137096005Y-87913778D01*
X137077228Y-87868445D01*
X137062984Y-87821490D01*
X137053412Y-87773365D01*
X137048602Y-87724534D01*
X137048602Y-87700000D01*
X137048000Y-87700000D01*
X137048000Y-87200000D01*
X137048602Y-87200000D01*
X137048602Y-87175466D01*
X137053412Y-87126635D01*
X137062984Y-87078510D01*
X137077228Y-87031555D01*
X137096005Y-86986222D01*
X137119136Y-86942949D01*
X137146396Y-86902150D01*
X137177524Y-86864221D01*
X137212221Y-86829524D01*
X137250150Y-86798396D01*
X137290949Y-86771136D01*
X137334222Y-86748005D01*
X137379555Y-86729228D01*
X137426510Y-86714984D01*
X137474635Y-86705412D01*
X137523466Y-86700602D01*
X137548000Y-86700602D01*
X137548000Y-86700000D01*
X138098000Y-86700000D01*
X138098000Y-88200000D01*
G37*
D16*
X138848000Y-87450000D03*
D10*
G36*
X140148000Y-86700602D02*
G01*
X140172534Y-86700602D01*
X140221365Y-86705412D01*
X140269490Y-86714984D01*
X140316445Y-86729228D01*
X140361778Y-86748005D01*
X140405051Y-86771136D01*
X140445850Y-86798396D01*
X140483779Y-86829524D01*
X140518476Y-86864221D01*
X140549604Y-86902150D01*
X140576864Y-86942949D01*
X140599995Y-86986222D01*
X140618772Y-87031555D01*
X140633016Y-87078510D01*
X140642588Y-87126635D01*
X140647398Y-87175466D01*
X140647398Y-87200000D01*
X140648000Y-87200000D01*
X140648000Y-87700000D01*
X140647398Y-87700000D01*
X140647398Y-87724534D01*
X140642588Y-87773365D01*
X140633016Y-87821490D01*
X140618772Y-87868445D01*
X140599995Y-87913778D01*
X140576864Y-87957051D01*
X140549604Y-87997850D01*
X140518476Y-88035779D01*
X140483779Y-88070476D01*
X140445850Y-88101604D01*
X140405051Y-88128864D01*
X140361778Y-88151995D01*
X140316445Y-88170772D01*
X140269490Y-88185016D01*
X140221365Y-88194588D01*
X140172534Y-88199398D01*
X140148000Y-88199398D01*
X140148000Y-88200000D01*
X139598000Y-88200000D01*
X139598000Y-86700000D01*
X140148000Y-86700000D01*
X140148000Y-86700602D01*
G37*
%TD*%
D17*
%TO.C,J6*%
X132820000Y-93900000D03*
X135360000Y-93900000D03*
X137900000Y-93900000D03*
X140440000Y-93900000D03*
X142980000Y-93900000D03*
X145520000Y-93900000D03*
X148060000Y-93900000D03*
D18*
X150600000Y-93900000D03*
%TD*%
D19*
%TO.C,J1*%
X144650000Y-84500000D03*
D20*
X143725000Y-84175000D03*
X143075000Y-84175000D03*
X142425000Y-84175000D03*
X141125000Y-84175000D03*
D19*
X140200000Y-84500000D03*
D21*
X146600000Y-81500000D03*
X138250000Y-81500000D03*
D20*
X141775000Y-84175000D03*
D22*
X142425000Y-81500000D03*
D23*
X138687500Y-81500000D03*
X146162500Y-81500000D03*
%TD*%
%TO.C,C1*%
G36*
G01*
X144099997Y-89580000D02*
X145400003Y-89580000D01*
G75*
G02*
X145650000Y-89829997I0J-249997D01*
G01*
X145650000Y-90655003D01*
G75*
G02*
X145400003Y-90905000I-249997J0D01*
G01*
X144099997Y-90905000D01*
G75*
G02*
X143850000Y-90655003I0J249997D01*
G01*
X143850000Y-89829997D01*
G75*
G02*
X144099997Y-89580000I249997J0D01*
G01*
G37*
G36*
G01*
X144099997Y-86455000D02*
X145400003Y-86455000D01*
G75*
G02*
X145650000Y-86704997I0J-249997D01*
G01*
X145650000Y-87530003D01*
G75*
G02*
X145400003Y-87780000I-249997J0D01*
G01*
X144099997Y-87780000D01*
G75*
G02*
X143850000Y-87530003I0J249997D01*
G01*
X143850000Y-86704997D01*
G75*
G02*
X144099997Y-86455000I249997J0D01*
G01*
G37*
%TD*%
%TO.C,C2*%
G36*
G01*
X152250003Y-90905000D02*
X150949997Y-90905000D01*
G75*
G02*
X150700000Y-90655003I0J249997D01*
G01*
X150700000Y-89829997D01*
G75*
G02*
X150949997Y-89580000I249997J0D01*
G01*
X152250003Y-89580000D01*
G75*
G02*
X152500000Y-89829997I0J-249997D01*
G01*
X152500000Y-90655003D01*
G75*
G02*
X152250003Y-90905000I-249997J0D01*
G01*
G37*
G36*
G01*
X152250003Y-87780000D02*
X150949997Y-87780000D01*
G75*
G02*
X150700000Y-87530003I0J249997D01*
G01*
X150700000Y-86704997D01*
G75*
G02*
X150949997Y-86455000I249997J0D01*
G01*
X152250003Y-86455000D01*
G75*
G02*
X152500000Y-86704997I0J-249997D01*
G01*
X152500000Y-87530003D01*
G75*
G02*
X152250003Y-87780000I-249997J0D01*
G01*
G37*
%TD*%
%TO.C,C3*%
G36*
G01*
X132296997Y-89580000D02*
X133597003Y-89580000D01*
G75*
G02*
X133847000Y-89829997I0J-249997D01*
G01*
X133847000Y-90655003D01*
G75*
G02*
X133597003Y-90905000I-249997J0D01*
G01*
X132296997Y-90905000D01*
G75*
G02*
X132047000Y-90655003I0J249997D01*
G01*
X132047000Y-89829997D01*
G75*
G02*
X132296997Y-89580000I249997J0D01*
G01*
G37*
G36*
G01*
X132296997Y-86455000D02*
X133597003Y-86455000D01*
G75*
G02*
X133847000Y-86704997I0J-249997D01*
G01*
X133847000Y-87530003D01*
G75*
G02*
X133597003Y-87780000I-249997J0D01*
G01*
X132296997Y-87780000D01*
G75*
G02*
X132047000Y-87530003I0J249997D01*
G01*
X132047000Y-86704997D01*
G75*
G02*
X132296997Y-86455000I249997J0D01*
G01*
G37*
%TD*%
%TO.C,D1*%
G36*
G01*
X157900000Y-92249999D02*
X157900000Y-93150001D01*
G75*
G02*
X157650001Y-93400000I-249999J0D01*
G01*
X156999999Y-93400000D01*
G75*
G02*
X156750000Y-93150001I0J249999D01*
G01*
X156750000Y-92249999D01*
G75*
G02*
X156999999Y-92000000I249999J0D01*
G01*
X157650001Y-92000000D01*
G75*
G02*
X157900000Y-92249999I0J-249999D01*
G01*
G37*
G36*
G01*
X155850000Y-92249999D02*
X155850000Y-93150001D01*
G75*
G02*
X155600001Y-93400000I-249999J0D01*
G01*
X154949999Y-93400000D01*
G75*
G02*
X154700000Y-93150001I0J249999D01*
G01*
X154700000Y-92249999D01*
G75*
G02*
X154949999Y-92000000I249999J0D01*
G01*
X155600001Y-92000000D01*
G75*
G02*
X155850000Y-92249999I0J-249999D01*
G01*
G37*
%TD*%
%TO.C,D2*%
G36*
G01*
X151265001Y-117843000D02*
X150364999Y-117843000D01*
G75*
G02*
X150115000Y-117593001I0J249999D01*
G01*
X150115000Y-116942999D01*
G75*
G02*
X150364999Y-116693000I249999J0D01*
G01*
X151265001Y-116693000D01*
G75*
G02*
X151515000Y-116942999I0J-249999D01*
G01*
X151515000Y-117593001D01*
G75*
G02*
X151265001Y-117843000I-249999J0D01*
G01*
G37*
G36*
G01*
X151265001Y-119893000D02*
X150364999Y-119893000D01*
G75*
G02*
X150115000Y-119643001I0J249999D01*
G01*
X150115000Y-118992999D01*
G75*
G02*
X150364999Y-118743000I249999J0D01*
G01*
X151265001Y-118743000D01*
G75*
G02*
X151515000Y-118992999I0J-249999D01*
G01*
X151515000Y-119643001D01*
G75*
G02*
X151265001Y-119893000I-249999J0D01*
G01*
G37*
%TD*%
D24*
%TO.C,IC1*%
X147925000Y-113370000D03*
X147925000Y-112370000D03*
D25*
X147925000Y-111370000D03*
X147925000Y-110370000D03*
X147925000Y-109370000D03*
X147925000Y-108370000D03*
X147925000Y-107370000D03*
X147925000Y-106370000D03*
X147925000Y-105370000D03*
X147925000Y-104370000D03*
X147925000Y-103370000D03*
D24*
X147925000Y-102370000D03*
D25*
X147925000Y-101370000D03*
D26*
X145675000Y-98950000D03*
D27*
X144675000Y-98950000D03*
D26*
X143675000Y-98950000D03*
X142675000Y-98950000D03*
X141675000Y-98950000D03*
X140675000Y-98950000D03*
X139675000Y-98950000D03*
X138675000Y-98950000D03*
X137675000Y-98950000D03*
D27*
X136675000Y-98950000D03*
D24*
X134425000Y-101370000D03*
D25*
X134425000Y-102370000D03*
X134425000Y-103370000D03*
X134425000Y-104370000D03*
X134425000Y-105370000D03*
X134425000Y-106370000D03*
X134425000Y-107370000D03*
X134425000Y-108370000D03*
X134425000Y-109370000D03*
X134425000Y-110370000D03*
X134425000Y-111370000D03*
D24*
X134425000Y-112370000D03*
X134425000Y-113370000D03*
D27*
X136675000Y-115950000D03*
X137675000Y-115950000D03*
X144675000Y-115950000D03*
X145675000Y-115950000D03*
D28*
X141875000Y-109620000D03*
%TD*%
D29*
%TO.C,J2*%
X134900000Y-82100000D03*
D30*
X134900000Y-83370000D03*
X133630000Y-82100000D03*
X133630000Y-83370000D03*
X132360000Y-82100000D03*
X132360000Y-83370000D03*
X131090000Y-82100000D03*
X131090000Y-83370000D03*
X129820000Y-82100000D03*
X129820000Y-83370000D03*
%TD*%
D17*
%TO.C,J3*%
X153550000Y-95940000D03*
X153550000Y-98480000D03*
X153550000Y-101020000D03*
X153550000Y-103560000D03*
X153550000Y-106100000D03*
X153550000Y-108640000D03*
X153550000Y-111180000D03*
X153550000Y-113720000D03*
X153550000Y-116260000D03*
D18*
X153550000Y-118800000D03*
%TD*%
D17*
%TO.C,J5*%
X129750000Y-118810000D03*
X129750000Y-116270000D03*
X129750000Y-113730000D03*
X129750000Y-111190000D03*
X129750000Y-108650000D03*
X129750000Y-106110000D03*
X129750000Y-103570000D03*
X129750000Y-101030000D03*
X129750000Y-98490000D03*
D18*
X129750000Y-95950000D03*
%TD*%
%TO.C,J4*%
X153100000Y-82400000D03*
D17*
X150560000Y-82400000D03*
%TD*%
D10*
%TO.C,JP2*%
G36*
X138098000Y-91200000D02*
G01*
X137548000Y-91200000D01*
X137548000Y-91199398D01*
X137523466Y-91199398D01*
X137474635Y-91194588D01*
X137426510Y-91185016D01*
X137379555Y-91170772D01*
X137334222Y-91151995D01*
X137290949Y-91128864D01*
X137250150Y-91101604D01*
X137212221Y-91070476D01*
X137177524Y-91035779D01*
X137146396Y-90997850D01*
X137119136Y-90957051D01*
X137096005Y-90913778D01*
X137077228Y-90868445D01*
X137062984Y-90821490D01*
X137053412Y-90773365D01*
X137048602Y-90724534D01*
X137048602Y-90700000D01*
X137048000Y-90700000D01*
X137048000Y-90200000D01*
X137048602Y-90200000D01*
X137048602Y-90175466D01*
X137053412Y-90126635D01*
X137062984Y-90078510D01*
X137077228Y-90031555D01*
X137096005Y-89986222D01*
X137119136Y-89942949D01*
X137146396Y-89902150D01*
X137177524Y-89864221D01*
X137212221Y-89829524D01*
X137250150Y-89798396D01*
X137290949Y-89771136D01*
X137334222Y-89748005D01*
X137379555Y-89729228D01*
X137426510Y-89714984D01*
X137474635Y-89705412D01*
X137523466Y-89700602D01*
X137548000Y-89700602D01*
X137548000Y-89700000D01*
X138098000Y-89700000D01*
X138098000Y-91200000D01*
G37*
D16*
X138848000Y-90450000D03*
D10*
G36*
X140148000Y-89700602D02*
G01*
X140172534Y-89700602D01*
X140221365Y-89705412D01*
X140269490Y-89714984D01*
X140316445Y-89729228D01*
X140361778Y-89748005D01*
X140405051Y-89771136D01*
X140445850Y-89798396D01*
X140483779Y-89829524D01*
X140518476Y-89864221D01*
X140549604Y-89902150D01*
X140576864Y-89942949D01*
X140599995Y-89986222D01*
X140618772Y-90031555D01*
X140633016Y-90078510D01*
X140642588Y-90126635D01*
X140647398Y-90175466D01*
X140647398Y-90200000D01*
X140648000Y-90200000D01*
X140648000Y-90700000D01*
X140647398Y-90700000D01*
X140647398Y-90724534D01*
X140642588Y-90773365D01*
X140633016Y-90821490D01*
X140618772Y-90868445D01*
X140599995Y-90913778D01*
X140576864Y-90957051D01*
X140549604Y-90997850D01*
X140518476Y-91035779D01*
X140483779Y-91070476D01*
X140445850Y-91101604D01*
X140405051Y-91128864D01*
X140361778Y-91151995D01*
X140316445Y-91170772D01*
X140269490Y-91185016D01*
X140221365Y-91194588D01*
X140172534Y-91199398D01*
X140148000Y-91199398D01*
X140148000Y-91200000D01*
X139598000Y-91200000D01*
X139598000Y-89700000D01*
X140148000Y-89700000D01*
X140148000Y-89700602D01*
G37*
%TD*%
%TO.C,R1*%
G36*
G01*
X131950000Y-119693000D02*
X131950000Y-118443000D01*
G75*
G02*
X132200000Y-118193000I250000J0D01*
G01*
X133125000Y-118193000D01*
G75*
G02*
X133375000Y-118443000I0J-250000D01*
G01*
X133375000Y-119693000D01*
G75*
G02*
X133125000Y-119943000I-250000J0D01*
G01*
X132200000Y-119943000D01*
G75*
G02*
X131950000Y-119693000I0J250000D01*
G01*
G37*
G36*
G01*
X134925000Y-119693000D02*
X134925000Y-118443000D01*
G75*
G02*
X135175000Y-118193000I250000J0D01*
G01*
X136100000Y-118193000D01*
G75*
G02*
X136350000Y-118443000I0J-250000D01*
G01*
X136350000Y-119693000D01*
G75*
G02*
X136100000Y-119943000I-250000J0D01*
G01*
X135175000Y-119943000D01*
G75*
G02*
X134925000Y-119693000I0J250000D01*
G01*
G37*
%TD*%
%TO.C,R2*%
G36*
G01*
X156275000Y-89425000D02*
X157525000Y-89425000D01*
G75*
G02*
X157775000Y-89675000I0J-250000D01*
G01*
X157775000Y-90600000D01*
G75*
G02*
X157525000Y-90850000I-250000J0D01*
G01*
X156275000Y-90850000D01*
G75*
G02*
X156025000Y-90600000I0J250000D01*
G01*
X156025000Y-89675000D01*
G75*
G02*
X156275000Y-89425000I250000J0D01*
G01*
G37*
G36*
G01*
X156275000Y-86450000D02*
X157525000Y-86450000D01*
G75*
G02*
X157775000Y-86700000I0J-250000D01*
G01*
X157775000Y-87625000D01*
G75*
G02*
X157525000Y-87875000I-250000J0D01*
G01*
X156275000Y-87875000D01*
G75*
G02*
X156025000Y-87625000I0J250000D01*
G01*
X156025000Y-86700000D01*
G75*
G02*
X156275000Y-86450000I250000J0D01*
G01*
G37*
%TD*%
%TO.C,R3*%
G36*
G01*
X147832000Y-119693000D02*
X147832000Y-118443000D01*
G75*
G02*
X148082000Y-118193000I250000J0D01*
G01*
X149007000Y-118193000D01*
G75*
G02*
X149257000Y-118443000I0J-250000D01*
G01*
X149257000Y-119693000D01*
G75*
G02*
X149007000Y-119943000I-250000J0D01*
G01*
X148082000Y-119943000D01*
G75*
G02*
X147832000Y-119693000I0J250000D01*
G01*
G37*
G36*
G01*
X144857000Y-119693000D02*
X144857000Y-118443000D01*
G75*
G02*
X145107000Y-118193000I250000J0D01*
G01*
X146032000Y-118193000D01*
G75*
G02*
X146282000Y-118443000I0J-250000D01*
G01*
X146282000Y-119693000D01*
G75*
G02*
X146032000Y-119943000I-250000J0D01*
G01*
X145107000Y-119943000D01*
G75*
G02*
X144857000Y-119693000I0J250000D01*
G01*
G37*
%TD*%
D31*
%TO.C,U1*%
X148175000Y-87700000D03*
X149125000Y-89700000D03*
X147225000Y-89700000D03*
%TD*%
D32*
%TO.C,U2*%
X130100000Y-88850000D03*
X130100000Y-89350000D03*
X130100000Y-89850000D03*
X130100000Y-90350000D03*
X130100000Y-90850000D03*
X125700000Y-90850000D03*
X125700000Y-90350000D03*
X125700000Y-89850000D03*
X125700000Y-89350000D03*
X125700000Y-88850000D03*
%TD*%
M02*
